<svg version="1" xmlns="http://www.w3.org/2000/svg" width="997.333" height="997.333" viewBox="0 0 748.000000 748.000000"><path d="M369 28c-6 .3-14.1 1.5-18.9 2.8-6.8 1.9-11.5 2.4-25 2.6-14.8.3-17.6.6-25.5 3-4.9 1.5-12.1 4.4-16 6.3-5.3 2.7-10.4 4.2-20.1 6C247 51.8 234.3 57.2 221 67c-5.6 4.1-10.9 7.3-13 7.6-11.5 2.1-37.8 19.7-46 30.9-1.9 2.6-5.2 5.6-7.3 6.6-14.5 7.5-31.5 23.9-39.6 38.3-3.5 6.3-6.4 9.9-11.5 14.2-9.6 8.4-19.8 22.9-25.2 36.2-2.4 5.9-4.4 11.3-4.4 12 0 .8-1.5 3.2-3.4 5.5-10.7 13.1-19.8 34.9-21.2 50.7-.4 4.4-1.4 8.8-2.4 10.5-1 1.6-3.6 7.7-5.8 13.5-4.8 13-6.7 26.1-5.7 40.5.5 8.1.3 10.9-1.1 14.5-.9 2.5-2.2 10.1-2.9 17-1.1 10.4-1.1 14.1.1 22.5.8 5.5 2.1 12.2 3 14.8 1.2 3.5 1.7 9.4 1.8 21.5.2 15 .5 17.6 3 25.6 1.5 4.9 4.7 12.9 7.2 17.7 3.3 6.7 4.4 10 4.4 13.5 0 12 10.6 37.6 20.5 49.6 3.1 3.8 5.5 8.3 8 15.4 4.9 13.7 14.2 27.4 26 38.4 6 5.6 10 10.4 12 14.2 6.9 13.1 30.3 35.3 40.9 38.8 2.4.7 4.8 2.8 7.2 6.2 8.2 11.1 33.2 27.5 47 30.7 3.4.8 6.8 2.7 10.5 5.7 11.6 9.7 38.4 20.3 51.2 20.4 3.5 0 6.8 1 12.9 4.1 5 2.5 12.8 5.3 20.2 7.1 11.1 2.7 13.2 2.9 25.1 2.5 11.1-.4 14.5-.1 23.3 1.9 14.6 3.4 29.4 3.3 44.5-.2 9.3-2.1 13.4-2.6 24.7-2.5 16.5.2 27.9-2.4 44-9.9 8.1-3.8 12-5 17.1-5.4 14-1.1 34.7-10 47.8-20.5 2.5-2 9.6-5.6 16-8.1 14.9-5.9 27.8-14.9 38.1-26.4 4.4-4.8 9-9 11-9.8 6-2.5 20.9-14.8 28.1-23.2 3.9-4.5 8.6-11.3 10.5-15.1 2.7-5.5 5-8.3 10.5-13 9.8-8.3 20-22.8 25.5-36.3 2.4-5.9 4.4-11.4 4.4-12.3 0-.9.8-2.4 1.9-3.3 1-.9 4.6-6 7.9-11.4 7.7-12.3 12.9-26.3 14.3-39.1.9-7.6 1.8-10.9 4.4-15.7 1.8-3.4 4.8-11.2 6.6-17.5 3.1-10.8 3.3-12.4 3.5-28.4.1-13.5.6-18.8 2.3-25.8 3.1-12.8 2.9-28.3-.4-43-2.1-9-2.7-14.4-2.9-27.2-.2-14.1-.6-17.1-3-24.9-1.5-4.9-4.7-12.8-7-17.5-3.4-6.8-4.4-10.1-4.9-15.6-1.3-14.8-10.4-36-20.8-48.7-2.5-3-5.1-8.1-7.4-14.3-5-13.8-12.6-25.2-24.5-36.9-6.9-6.9-11.7-12.7-16.1-19.6-7.6-12.3-18.2-22.6-31.7-31-6.5-4-12.8-9.1-18.6-15-11-11-22.8-18.7-37.1-24-7.6-2.8-13-5.7-18.9-10-13.6-9.7-31-16.1-50.7-18.4-2-.2-6.7-2-10.5-3.9S453 37 447.5 35.4c-8.9-2.5-11.8-2.8-26.5-3-12.1-.1-19.3-.8-27-2.3-14.2-2.8-13.2-2.8-25-2.1zm7 13.5c0 1.6-3.8 2.2-6 .9-2.4-1.3-2.4-1.3 1.8-1.4 2.3 0 4.2.2 4.2.5zm40.3 11.3c3.5 1.4 5 3.2 2.6 3.2-.7 0-4.2 1.6-8 3.5l-6.8 3.4-8.6-5.9c-9.7-6.6-9.7-6.7.7-9.4 5-1.3 5.6-1.2 10.8 1.1 3 1.4 7.2 3.2 9.3 4.1zm22.7-5.4c3.4 1.3 3.5 1.3.9 1.8-1.7.3-3.6-.2-5-1.3-2.8-2.2-1.1-2.4 4.1-.5zm-126 .1c0 .2-1.1 1.1-2.4 2-1.6 1.1-3 1.3-4.7.6-2.3-.8-2.3-.9 1.1-1.9 4-1.2 6-1.4 6-.7zm35 2.3c4.2 1 7.5 2.2 7.5 2.9 0 1.3-11.1 10.3-12.7 10.3-1.3 0-17-7-18.2-8.1-1-.9 11-6.7 13.9-6.7 1.1 0 5.4.7 9.5 1.6zm35.3 16c3.7 2.5 6.6 4.9 6.5 5.4-.2.5-3.9 3.5-8.3 6.7l-7.9 5.8-10.3-7.1-10.4-7.1 2.7-2c1.4-1.1 5.3-3.7 8.6-5.7 7-4.3 6.4-4.4 19.1 4zm84.7-6.3c4.5 2.3 13.3 10.5 11.8 10.9-.7.2-4.6 1.1-8.7 2.1l-7.4 1.7-7.1-7.1c-5.8-5.8-6.8-7.3-5.6-8.1 2.4-1.5 13.7-1.2 17 .5zm-173.2 3c.1.1-1.2 1.8-3 3.7-1.8 1.8-4.5 4.8-6 6.6-2.2 2.7-3 3.1-5 2.3-1.3-.5-5.9-1.4-10.1-2.1-4.3-.7-7.6-1.6-7.5-2.1.2-.4 3-2.8 6.2-5.3l6-4.6 9.5.6c5.3.4 9.7.8 9.9.9zM444 74.1l5.1 5.8-9.8 4.6-9.8 4.6-1.8-2.3c-1-1.3-4.8-5.3-8.4-9-3.7-3.7-6.4-7-6.1-7.4.4-.3 4.6-2.1 9.4-3.9l8.7-3.3 3.8 2.5c2.1 1.3 6 5.1 8.9 8.4zm59.9-6.5c.2.2-.7.4-2 .4-1.4 0-3-.9-3.7-2-1.3-2.1-1.2-2.1 2-.4 1.8.9 3.5 1.8 3.7 2zm-254.9.9c-.7.8-2.7 1.5-4.4 1.4h-3.1l4-1.8c4.4-2 5.4-1.9 3.5.4zm67-1.1c3.5 1.1 12.4 4.8 14.9 6.3.2.1-2 2.8-4.7 6-2.8 3.2-5.9 6.9-6.9 8.2l-1.9 2.3-6.2-3.1c-3.4-1.7-8.7-4.1-11.8-5.2l-5.6-2.1 6.8-6.9c7.3-7.4 8.2-7.7 15.4-5.5zm93 19.5c5.2 4.9 9.3 9.1 9 9.3-.3.2-4.4 3.2-9.1 6.6l-8.7 6.2-9.6-9.3-9.6-9.2 8.7-6.2c4.9-3.4 9-6.2 9.3-6.3.3 0 4.8 4 10 8.9zm-55.8-.4l9.7 6.7-7.1 7.9c-4 4.4-7.6 7.9-8.1 7.9-.6 0-3.4-1.8-6.2-4-2.9-2.2-7.6-5.3-10.5-6.9l-5.4-2.9 7.9-8.2c4.4-4.4 8.4-7.9 9-7.7.5.3 5.4 3.5 10.7 7.2zm165.4-6.2l7.1 1.2 6.1 7.1c3.4 4 6.2 7.4 6.2 7.7 0 .3-1.2.3-2.7.1-1.6-.2-5.6-.1-9.1.4l-6.3.9-2.6-5.1c-1.4-2.8-3.5-6.5-4.7-8.1-4.7-6.3-5.1-6 6-4.2zm-20.9 8c3.4 4.5 6.5 8.9 6.8 9.8.5 1.3-1 2-8.2 3.8-4.8 1.2-9.5 2.4-10.3 2.6-1.1.4-3.6-2.7-8.4-10-3.8-5.8-6.7-10.8-6.4-11 .5-.5 15.5-3.3 18.3-3.3 1.4-.1 3.9 2.5 8.2 8.1zM236 84.9c0 .6-.4 1.2-.9 1.5-.5.4-2.5 3.5-4.5 6.9l-3.5 6.3-10.1-.1c-5.5-.1-10.3-.5-10.6-.7-.3-.3 1.7-3 4.4-5.9 4.5-4.8 5.7-5.6 11.8-7 8-1.9 13.4-2.3 13.4-1zm26.5 1.1c5.9 1.1 11 2.1 11.1 2.3.2.1-2.1 4.3-5 9.2-3.3 5.7-5.8 8.9-6.7 8.6-.8-.2-6.1-1.2-11.9-2.4-5.8-1.1-10.7-2.1-10.9-2.3-.9-.7 10.3-17.4 11.8-17.4.4 0 5.6.9 11.6 2zm201.6 12.6c3.9 5.8 6.8 10.8 6.6 11.1-.7.7-20 9.3-20.2 9-.1-.1-1.6-2.7-3.5-5.7-1.8-3-4.8-7.5-6.6-9.9-1.9-2.4-3.4-4.9-3.4-5.5 0-.9 16.9-9.3 19.2-9.5.4-.1 4 4.7 7.9 10.5zm-168.4-3c14.7 5.5 14.2 4.4 7.2 15.2l-6 9.2-4.7-2.4c-2.6-1.3-7.8-3.3-11.7-4.6-3.8-1.2-7.2-2.4-7.4-2.6-.8-.7 10.6-18.4 11.9-18.4.5 0 5.4 1.6 10.7 3.6zm263.2 2.2c-1.1.2-2.7-.5-3.4-1.5-2.4-3-1.7-3.4 2-1.1 3 2 3.2 2.3 1.4 2.6zM193 96.7c-.1 1.8-2.8 4.2-5.6 4.9-2.9.7-2.8.6 1-2.5 4.1-3.3 4.6-3.6 4.6-2.4zm186.8 11.4c4.8 4.4 8.7 8.6 8.7 9.3 0 .6-3.3 4.3-7.3 8.1l-7.3 6.8-6.7-6.5c-3.7-3.6-7.9-7.4-9.4-8.5l-2.7-2 7.7-7.6c4.1-4.3 7.8-7.7 8-7.7.2 0 4.3 3.6 9 8.1zm50.1 3.2c2.9 4 6.1 8.7 7 10.6 1.5 3.2 1.5 3.4-.4 4.8-4.3 3-14.7 9.4-15 9.1-.2-.2-3.7-4.6-7.9-9.8-5.9-7.4-7.3-9.7-6.3-10.6 1.6-1.6 16.1-11.4 16.7-11.3.3 0 2.9 3.2 5.9 7.2zm-96.1 4.9c3.5 2.6 5 4.3 4.5 5.2-.5.6-3 4.3-5.7 8.2-2.8 3.8-5.1 7.1-5.2 7.3-.2.1-1.8-.8-3.6-2.2-1.8-1.3-6.6-4.1-10.5-6.2-4-2.1-7.3-4.1-7.3-4.5 0-.4 2.5-4.7 5.6-9.4l5.7-8.6 5.6 3.2c3.1 1.7 8 4.9 10.9 7zm207.4-8.3c4.6.1 4.6.2 7.8 5.8 1.8 3.1 4.1 8 5 10.9l1.8 5.2-2.7.4c-1.5.2-6.5.4-11.1.4l-8.2-.1-3.8-11c-2.1-6-3.6-11.3-3.3-11.8.3-.4 2.6-.6 5.1-.3 2.6.2 6.8.5 9.4.5zm-26.9 8.8c3.6 7.8 6.4 16.1 5.6 16.6-.2.2-4.8 1.3-10.1 2.6-9.5 2.2-11.8 2.2-11.8-.2 0-.7-2.1-5.6-4.7-10.9-2.5-5.4-4.4-10-4.1-10.3.5-.6 18-5.2 20.4-5.4.6-.1 2.7 3.4 4.7 7.6zm58.3-3.1c4.9 1.9 7.5 3.5 8.5 5.3.8 1.4 3 5.2 4.8 8.5l3.4 5.8-3.9-.6c-2.2-.3-6.1-.9-8.9-1.2-2.7-.3-5.1-.7-5.3-.9-.9-.8-7.1-19.5-6.4-19.5.4 0 3.9 1.2 7.8 2.6zm-352.9.7c.1.2-1.2 4.7-2.9 10l-3.2 9.7-7.1-.1c-3.8-.1-9.6-.4-12.7-.8l-5.7-.6 3.4-7.9c4.2-9.7 4.8-10.4 8.8-10.9 3.3-.3 18.9.2 19.4.6zm26 2.9c9.5 1.7 11.4 2.4 10.9 3.7-.6 2.2-6.9 18.5-7.3 19-.4.5-23.6-4-24.6-4.8-.7-.7 2.7-11.6 5.3-17.4 1.6-3.3 1.3-3.2 15.7-.5zm-63.8 2c-.6 1.1-2.1 5.1-3.4 8.7l-2.2 6.6-9 1.1c-5 .6-9.6 1.4-10.2 1.8-1.9 1.2-1.2-.6 2.7-7.2 3.6-6.3 3.9-6.5 12.2-9.7 10.4-4.1 11.5-4.3 9.9-1.3zm298.7 9.4c6.7 14.4 6.8 13.4-2.8 17-4.6 1.7-9 3.4-9.9 3.8-1.2.5-2-.4-3.4-4.1-1-2.6-3.3-7.6-5.3-11.1-2.2-4.1-3.1-6.7-2.5-7.3 1.3-1.3 16.4-7.9 18.1-7.9.7 0 3.3 4.3 5.8 9.6zm-206-3.1c3.8 1.4 9 3.5 11.7 4.7 4.4 2 4.6 2.3 3.4 4.2-.7 1.2-2.6 5.2-4.2 9.1-1.5 3.8-2.9 7.1-3 7.2-.1.2-5.6-1.6-12.2-4-10.9-3.8-11.9-4.4-11.2-6.2 5.6-14 7.2-17.5 7.9-17.5.4 0 3.9 1.1 7.6 2.5zm127.1 7c6.7 8.2 8.8 11.5 7.7 12.4-.5.4-3.7 3.1-7.1 5.9l-6.1 5.3-6-7.4c-3.3-4-6.7-7.9-7.6-8.6-.9-.7-1.6-1.7-1.6-2.1 0-1.4 14.3-13.1 15-12.3.4.4 3 3.5 5.7 6.8zm-44.2 2.7l7.4 7-5.6 6.6c-3.1 3.7-5.7 6.8-5.8 7-.1.1-2-1.2-4.2-3-2.1-1.8-6.2-4.9-9.1-6.8-2.8-1.9-5.2-3.8-5.2-4.2 0-.3 2.5-4 5.6-8.2 6.7-8.8 5.9-8.9 16.9 1.6zM609 137l2.2 3-2.6-1.1c-1.4-.7-2.6-1.6-2.6-2 0-.4-.3-1.5-.7-2.5-.9-2.5 1.1-1 3.7 2.6zm-160.4 6c6.4 12.9 6.6 11.9-2.4 16.7l-7.8 4.2-6.1-9.9c-5.4-8.7-5.9-10-4.6-11.2 3.4-2.8 13.9-8.6 15.3-8.5.8.1 3.3 4 5.6 8.7zm-140.8-2c4.3 2.2 8.7 4.9 9.9 5.9l2.2 1.8-4.2 8-4.2 8.1-10-5c-5.5-2.8-10.2-5.2-10.4-5.4-.7-.7 7.1-17.4 8.1-17.4.6 0 4.4 1.8 8.6 4zm-166.3-.1c-.4 1.3-1.5 2.1-2.7 2.1-2.1 0-2.1 0 .2-2.5 2.6-2.8 3.5-2.7 2.5.4zm418.8 1.4c.9 2.4 4 22.7 3.5 23.2-.2.3-5.2.7-11 1l-10.6.4-1.5-8.7c-.9-4.8-1.9-10.6-2.3-13l-.7-4.2h11.1c8.1 0 11.1.3 11.5 1.3zm23.5 1.3c4.2.9 8.4 2 9.2 2.4.9.5 2.3 3.2 3.2 6.2 1.7 5.4 4 16.9 3.5 17.4-.3.4-14.3-1.5-18.2-2.5-2.8-.6-3-1-4.7-10.1-1.8-9.8-2.2-15-1.3-15 .3 0 4 .7 8.3 1.6zm-59.3 1.6c1.9 7.9 4.2 22.4 3.7 22.9-.4.3-4.5 1.1-9 1.8-4.6.7-9 1.5-9.8 1.8-.9.3-1.4-.2-1.4-1.5 0-1.1-1.4-6.6-3-12.2-1.7-5.6-2.9-10.4-2.7-10.6.5-.5 17-4.2 19.4-4.3 1.6-.1 2.4.6 2.8 2.1zm-314.9 3.1c.2.2-.2 3.6-1.1 7.6-.8 4-1.5 8.7-1.5 10.4v3.2h-27.1l.4-2.5c.3-1.4 1.1-6 1.8-10.3 1-6.4 1.6-8.1 3.3-8.8 2-.9 23.3-.5 24.2.4zm35.2 5.2c.2.2-.7 4.8-1.9 10.2l-2.4 10-4.5-.9c-2.5-.5-7.8-1.3-11.8-1.7-4-.5-7.6-1.2-7.9-1.5-.5-.5 2.3-17.3 3.4-20.2.3-.8 4.2-.3 12.6 1.4 6.7 1.3 12.4 2.5 12.5 2.7zm-72.1-2.3c-.3 1.3-1.1 6.2-1.8 10.9l-1.2 8.7-6.7.6c-3.6.4-9.1 1.3-12 2.1-3 .8-5.6 1.3-5.8 1-.5-.5 2.8-16.6 3.9-18.6.4-.9 2.8-2.2 5.1-2.8 2.4-.6 6.6-1.8 9.3-2.6 7.7-2.1 9.8-2 9.2.7zm201.3 0c1.7 1.2 5 4.7 7.4 7.8l4.5 5.7-5.4 5.3-5.4 5.3-7.5-6.4c-4.1-3.5-7.5-6.6-7.5-6.9-.1-.7 9.8-13 10.5-13 .3 0 1.8 1 3.4 2.2zm46.9 9.7c3 4.9 5.3 9.2 5 9.7-.2.5-3.1 2.7-6.4 4.9l-6 4-3.8-5.5c-2-3-4.8-6.9-6.2-8.5l-2.4-3.1 6.6-5.2c3.6-2.9 6.9-5.2 7.2-5.2.3 0 3 4 6 8.9zm71.2.6c4 13.1 4 13.1-2.8 15-3.2.9-7.1 2.1-8.7 2.6-1.6.5-3 .8-3 .7-.1-.2-1.6-4.6-3.4-9.8-1.8-5.2-3.4-10.2-3.5-10.9-.2-1.8 12.6-7.2 16.3-6.8 2.1.2 2.7 1.2 5.1 9.2zm131.6-1.8c1.9 1.5 9.1 19.3 7.8 19.3-.2 0-4-1.1-8.4-2.5-6.5-2.1-8.2-3-8.6-4.8-1.1-5.2-2.5-14.2-2.5-16.4V153l4.8 2.4c2.6 1.4 5.7 3.3 6.9 4.3zm-286.9.4c4.5 3.3 8.2 6.3 8.2 6.7 0 .4-2 3.5-4.3 6.9l-4.3 6.1-8.5-5.4c-4.6-2.9-8.3-5.9-8.1-6.6.6-2.3 7.3-13.8 8-13.8.4 0 4.4 2.8 9 6.1zm-70 0c5.6 1.8 10.2 3.8 10.2 4.4 0 2-5.2 16.5-5.9 16.5-.4 0-3.3-.9-6.4-1.9-3.1-1.1-7.7-2.3-10.2-2.6-2.9-.5-4.5-1.2-4.5-2.1 0-3.8 4.4-18.5 5.4-18.1l11.4 3.8zm-131.9 9.3c-.7 4.7-1.6 8.6-2.2 8.6-.5 0-4.8 1.6-9.4 3.6-4.6 2-8.6 3.4-8.8 3.2-.8-.8 3.7-13.3 5.5-15.1 1.8-1.9 15.3-9.8 15.8-9.2.2.1-.2 4.1-.9 8.9zm324.9-.7c2 4.9 5.4 15.5 4.9 15.8-1.2.7-13 5.5-13.6 5.5-.7 0-9.1-17-9.1-18.4 0-.7 13.1-7.5 14.6-7.6.6 0 2.1 2.1 3.2 4.7zm-157 6.6c1.2.5 2.2 1.5 2.2 2.1 0 1.7-5.4 13.7-6 13.4-.3-.2-4.6-1.8-9.6-3.6l-9.1-3.4 2.6-8.2 2.6-8.3 7.5 3.4c4.1 1.9 8.5 4 9.8 4.6zm94.1 3.3c2.8 3.7 5.1 7.2 5.1 8 0 1.2-8 8.4-9.3 8.4-.3 0-3.1-2.9-6.3-6.5l-5.7-6.6 4.8-4.9c2.7-2.8 5.2-5 5.6-5 .4 0 3 3 5.8 6.6zm-37.6.7l6.7 6.2-4.1 5.2-4.1 5.3-6.2-5.1c-3.3-2.8-6.6-5.4-7.3-5.6-.9-.4 0-2.4 2.9-6.4 2.2-3.2 4.4-5.9 4.7-5.9.3 0 3.6 2.8 7.4 6.3zm206.7 9.8v13.1l-10.5-.4-10.5-.3v-3.6c0-2-.3-7.7-.6-12.7l-.7-9.2H566v13.1zm-35 .9l.5 11.8-7.9.7c-4.3.4-8.5.9-9.2 1.2-1 .4-1.4-.4-1.4-3 0-1.9-.7-7.2-1.6-11.7-.8-4.5-1.4-8.4-1.2-8.5.6-.6 19.3-3.2 19.8-2.8.3.3.7 5.8 1 12.3zm64.4-10.3l6.9 1.5-.6 12.6c-.4 6.9-.8 12.7-1 12.9-.2.2-3.6-.3-7.6-1.2-4-.8-8.5-1.5-10-1.5-2.8 0-2.8 0-3.4-8.3-.4-4.5-.7-10.6-.7-13.5v-5.3l4.8.6c2.6.4 7.8 1.4 11.6 2.2zm-161.1 6.8c2 4.2 3.7 8.1 3.7 8.8 0 1.1-2.5 2.7-10.1 6.5-.7.3-9.9-13.8-9.9-15.1 0-.9 10.1-7.6 11.5-7.6.6-.1 2.7 3.3 4.8 7.4zm-110.7 1l6.1 3.8-2.9 5.3c-1.6 3-3.2 5.4-3.6 5.4-.3 0-4.1-1.6-8.4-3.6l-7.7-3.7 1.4-3.3c.8-1.9 2.2-5 3-7 1.5-3.4 1.7-3.5 3.8-2.1 1.2.8 4.9 3.1 8.3 5.2zm-118.8 6l-.3 10.5h-5.1c-2.8 0-8.5.3-12.7.6l-7.7.7v-10.5c0-5.8.3-10.8.7-11.1.3-.4 6.2-.7 13.1-.7h12.4l-.4 10.5zm445.4-7.5c1.7 2.9 1.4 3.7-.8 2.2-1.4-.9-2.8-5.2-1.7-5.2.4 0 1.6 1.4 2.5 3zM169 187.8c0 2.2.3 7.3.6 11.4l.7 7.5-5.4.7c-3 .4-8.7 1.6-12.7 2.7-4.1 1.1-7.5 1.9-7.7 1.7-.4-.4-.9-14.9-.7-19.4l.2-3.1 10.8-2.3c5.9-1.2 11.2-2.4 11.7-2.5 2.2-.7 2.5-.3 2.5 3.3zm60.9-2.2l8.6 1.7-.9 8.8-.9 8.7-11.6-.5c-6.4-.3-11.7-.7-11.8-.8-.2-.1 0-4.5.4-9.8l.6-9.7h3.5c1.9 0 7.4.7 12.1 1.6zm267.1-1.2c0 .2.7 4 1.5 8.3 2.5 13.1 2.6 12.8-5.6 14.2-3.8.7-7.3 1-7.6.7-1-.9-5.4-18.8-4.9-19.4 1.5-1.4 16.6-4.9 16.6-3.8zm133.1 6.7c2.5 1.2 4.1 2.9 4.6 4.7.9 3.2 1.1 19.8.2 20.6-.3.3-4.9-.9-10.2-2.6l-9.7-3.2v-12.2c0-6.6.2-12.3.6-12.6.6-.6 8.7 2.3 14.5 5.3zm-530.8 2.4c-3.1 2.4-3.5 1.7-1.1-1.7 1.9-2.7 2.3-3 2.6-1.5.2 1-.5 2.5-1.5 3.2zm161.7-1.3c3.6 1.1 6.7 2.2 6.9 2.4.1.1-.2 3.5-.9 7.4l-1.2 7.1-5.7-.7c-3.1-.4-7.6-1-10.1-1.3l-4.5-.7.3-4.4c.1-2.5.5-6.4.8-8.8l.5-4.3 3.7.6c2 .4 6.6 1.6 10.2 2.7zm116.8 6.1l5.3 6.1-3.5 3.4-3.4 3.5-2.6-2c-1.4-1.1-4.2-3.5-6.2-5.2l-3.6-3.2 3.7-4.4c2-2.5 3.9-4.5 4.3-4.4.4 0 3.1 2.8 6 6.2zM133 194.2c0 .7.3 5.7.7 11l.6 9.7-2.9.7c-1.6.4-6.8 2.4-11.6 4.4-4.8 2.1-8.8 3.7-9 3.5-.2-.2-.2-5 0-10.8l.3-10.5 10.2-4.5c11.5-5.1 11.7-5.2 11.7-3.5zm336.8 8.2c1.3 4.8 2.1 9 1.9 9.3-1.2 1.1-12 3.4-12.7 2.6-.7-.7-5-14.3-5-15.7 0-1 10.3-5.5 12-5.3 1 .2 2.3 3.2 3.8 9.1zm-59.2-2.7c1.5 2.7 3.3 5.7 4.1 6.9 1.2 1.9 1 2.3-2.7 4.8-2.2 1.4-4.4 2.6-4.8 2.6-.5 0-2.8-2.7-5.2-6.1l-4.2-6 3.8-3.4c2.2-1.9 4.4-3.4 5.1-3.5.6 0 2.4 2.1 3.9 4.7zm-66.8 1.6c2.8 2.2 5.2 4.3 5.2 4.8s-1.2 2.7-2.6 4.9l-2.6 3.9-6.7-4.2-6.7-4.1 3-5.3c1.6-2.8 3.4-4.9 4-4.6.6.3 3.5 2.4 6.4 4.6zm-58.7-1.4c9.7 3.2 10.2 3.7 8.4 8.6-.8 2.2-1.4 4.8-1.5 5.7 0 1-.3 1.8-.6 1.8-.9 0-16.9-4.1-17.2-4.4-.8-.9 2.3-14.6 3.2-14.3.6.2 4.1 1.4 7.7 2.6zm374.6 11c1.3 1.2 2.5 3.2 2.8 4.4.7 2.6 2.3 17.1 2 17.5-.1.1-3.7-1.9-7.9-4.5l-7.7-4.7.5-8c.3-4.5.5-9.2.5-10.4.1-2.4.1-2.4 3.9.6 2 1.7 4.7 4 5.9 5.1zm-215.3.8c1.4 4.2 2.5 7.7 2.3 7.8-.1.2-2.3 1.2-4.8 2.3l-4.7 2-3.1-6.7c-1.7-3.7-3.1-7.1-3.1-7.4 0-.6 8.8-5.6 10.2-5.7.3 0 1.8 3.5 3.2 7.7zM317.6 214c.1 0-.7 2.3-1.8 5-1.6 3.8-2.5 4.9-3.7 4.5-.9-.3-4.1-1.5-7.2-2.7l-5.6-2.2 1.5-5.7 1.6-5.7 7.4 3.4c4.1 1.9 7.6 3.4 7.8 3.4zm247.2-2.5c.2.2-.3 5.4-1 11.6l-1.4 11.4-8.9-.3c-4.9-.2-9.1-.5-9.3-.7-.2-.2 0-5.5.4-11.9l.7-11.5 9.6.6c5.3.3 9.7.7 9.9.8zm-465.1 8.4l.3 8.8-8.5 5.6c-8.1 5.5-9.5 5.9-9 2.7.1-.8.5-4.1.9-7.2.7-5.4 1-6 7.7-12.2 3.8-3.6 7.3-6.6 7.7-6.6.4 0 .8 4 .9 8.9zm292.9-3.4l3.7 5.5-2.4 2c-1.3 1-2.8 1.9-3.4 2-.5 0-2.9-1.9-5.2-4.2l-4.3-4.2 3.2-3.3c1.8-1.8 3.5-3.3 4-3.3.4 0 2.4 2.5 4.4 5.5zm138.9.2c-.3 3.2-.8 8.2-1.1 11l-.5 5.3h-14.6l-.7-6.1c-.3-3.4-.6-8.1-.6-10.5 0-4.9.2-5 11.8-5.3l6.3-.1-.6 5.7zm-170-.8c2.6 2.1 4.7 4.2 4.6 4.5 0 .4-1.1 2-2.5 3.7l-2.6 3-4.7-3.7c-2.7-2.1-5-3.9-5.2-4.1-.6-.4 4-7.3 4.9-7.3.4 0 2.9 1.7 5.5 3.9zm229.2-1.2c4.3.9 8.2 1.9 8.6 2.3.9.8-2.1 22.1-3.4 24.1-.8 1.4-19.9-2.9-19.9-4.5 0-1.9 2-19 2.6-21.4.5-2.7 1.8-2.7 12.1-.5zm-89.5 8.5c.2 5.1.2 9.6-.1 10-.3.3-3.3.8-6.6 1l-5.9.3-1.3-8.4c-.7-4.6-1.1-8.7-.7-9 .6-.6 9.7-2.8 12.6-3 1.3-.1 1.7 1.3 2 9.1zm-76.2 4.5c0 1.2-5.8 4.8-6.5 4.1-.2-.2-1.9-2.7-3.8-5.5l-3.5-5.3 4.1-2.5 4.2-2.5 2.7 5.3c1.5 2.8 2.7 5.8 2.8 6.4zm-221.4-9.9c.6.4 1.5 4.6 2 9.4l1 8.7-7.6.6c-4.1.4-9.3 1.1-11.5 1.5-2.2.5-4.1.7-4.3.6-.6-.7-2.5-18.6-2-19.2 1.5-1.4 20.6-2.9 22.4-1.6zm31.2 1.1c.9.5 1.2 2.9 1 8l-.3 7.1-10.1.3-10.2.4-.6-3.6c-.3-2-.6-5.7-.6-8.4V218h9.8c5.3 0 10.3.4 11 .9zm99.9 5.3c2.1 1 2.1 1.2.5 4.4-.8 1.9-1.9 3.4-2.3 3.4-.3 0-3.2-1.2-6.3-2.6l-5.6-2.5 1.5-2.9c.8-1.6 1.5-3.6 1.5-4.5 0-1.3.8-1.1 4.3 1 2.3 1.4 5.2 3.1 6.4 3.7zm-162.1 4.5c.7 4.4 1.5 8.9 1.8 10.1.4 1.2.4 2.2-.1 2.2-1.3 0-20.7 4.7-22.5 5.5-1.3.5-1.9-.5-3.1-6.2-.8-3.7-1.8-8.6-2.2-10.8l-.6-4 8.8-2.2c8.7-2.2 13.9-3.1 15.8-2.8.5.1 1.5 3.8 2.1 8.2zm86.9-6.8c2.2.4 3.9 1.2 3.8 1.7-.1.6-.3 3.6-.4 6.8-.2 4.4-.6 5.6-1.7 5.1-.7-.3-4.9-.5-9.3-.5H244v-15.1l5.8.6c3.1.4 7.5 1.1 9.7 1.4zm213.6-1.7c1.1 5.3 2.4 16 2 16.2-.3.2-2.7.7-5.3 1.1-4.4.7-4.7.6-5.2-1.6-2-8.8-2.6-12.2-2.1-12.8.9-.9 10.4-3.5 10.6-2.9zm149.1 3.3c3.7 1.4 8.1 3.1 9.7 4l2.9 1.4-2.4 11.3c-1.3 6.2-2.6 11.8-2.8 12.5-.3.8-3.6 0-10.3-2.5-5.4-1.9-9.9-3.6-10-3.6-.7-.4 4.2-25.6 5-25.6.5 0 4.1 1.1 7.9 2.5zm-342.4 3.1c3.7.9 7 2 7.4 2.3.4.3.2 2.8-.4 5.4-1 4.8-1.1 4.9-4.2 4.3-1.7-.3-5.1-.8-7.6-1.1l-4.5-.7.3-4.6c.3-5.2.8-7.2 1.7-7.2.3 0 3.6.7 7.3 1.6zm96.7 4.5l4 4-2.4 1.8c-2.5 1.9-2.5 1.9-6.3-1.2-2.1-1.7-3.8-3.2-3.8-3.4 0-.9 3.3-5.3 3.9-5.3.4 0 2.5 1.8 4.6 4.1zm-238.1 5.6c1 4.9 2 9.9 2.3 11.3.4 2.3-.3 2.8-10.4 6.8-5.9 2.3-11.3 4.5-11.9 4.8-1.2.5-4-8.2-5.3-16.6l-.8-4.9 11.6-5c6.4-2.8 11.8-5.1 12.2-5.1.3 0 1.3 3.9 2.3 8.7zm312.1-6.5c2.7 12 2.8 11.3-2.6 12.3l-3.5.6-1.7-5.4c-2.2-7-2.2-7.4 1.1-8.5 4.4-1.7 6.1-1.4 6.7 1zm-46.8 2.1c3.5 5.2 3.7 6.2.8 7.5-3.4 1.6-2.9 1.8-6.4-3l-3.1-4.2 2.8-1.8c3.5-2.3 3.3-2.3 5.9 1.5zm-55.1.8c2.2 1.7 4.1 3.2 4.2 3.4.2.2-.4 1.4-1.4 2.7l-1.8 2.4-4.7-2.5-4.7-2.5 1.6-3.3c.9-1.8 1.9-3.3 2.2-3.3.4 0 2.5 1.4 4.6 3.1zm-45 1.1l5.1 2-1.1 3.9c-.8 2.9-1.4 3.8-2.6 3.4-.8-.4-3.7-1.1-6.3-1.8-4.7-1-4.9-1.2-4.3-4 .3-1.6.6-3.8.6-4.9 0-1.5.4-1.8 1.8-1.3.9.4 4 1.6 6.8 2.7zm127.7 8.1l1.6 4.8-2.5.9c-4 1.6-3.8 1.8-8.2-8.3-.5-1 6.1-3.7 6.9-2.9.4.4 1.3 2.9 2.2 5.5zm225.3-1c4.3 2.9 7.8 5.7 7.8 6.2-.1.6-.5 4.1-.8 7.9-.6 6.3-2.4 15.6-3.1 15.6-.2 0-4.3-2.5-9.2-5.5l-8.9-5.5 2.5-12c1.4-6.6 2.8-12 3.1-12 .4 0 4.2 2.4 8.6 5.3zm-335-.2c2.7 1.1 5 2.2 5.2 2.3.8.9-2.3 5.6-3.4 5.2-.7-.3-3.1-1-5.2-1.6l-4-1 1.1-3.5c.6-1.9 1.1-3.5 1.3-3.5.1 0 2.4.9 5 2.1zm360.2 2.7c1 3 1 3.2-.8 2.2-1.4-.7-2-2.1-2-4.2 0-3.7 1.2-2.8 2.8 2zm-292.9.7c2.3 3.5 2.3 3.6.5 5-1.7 1.2-2.2 1.1-4.8-1.5-2.9-2.9-2.9-3-1.1-5 2.4-2.6 2.6-2.6 5.4 1.5zm139.8 1.2c-.3 2.7-1.1 7.1-1.7 9.8l-1.1 5.1-5.9-.6c-3.2-.3-6.1-.8-6.3-1-.2-.3-.2-4.4.1-9.3l.5-8.7h15l-.6 4.7zm-164.9-.8c3 2.6 3.1 2.9 1.5 4.4-1.7 1.4-2.1 1.3-5.5-1.2-3.5-2.6-3.6-2.9-2-4.4 2.1-2.2 2.1-2.2 6 1.2zm136.9 5.2c-.4 4.5-.8 8.3-.9 8.5-.2.1-2.4 0-4.9-.3-4.3-.5-4.8-.8-5.3-3.5-.3-1.7-.6-5-.6-7.4 0-4.7.5-5.1 7.9-5.3l4.4-.1-.6 8.1zm54.6-6.6c2.6.4 4.7.8 4.7 1.1 0 .2-1.2 5.1-2.6 10.7l-2.5 10.2-8-1.4c-6.3-1.2-7.8-1.8-7.5-3 .3-.9 1.2-5.5 2.2-10.3l1.7-8.8 3.6.5c2 .2 5.7.7 8.4 1zm-449.8 11.3c1.5 5.7 2.6 10.4 2.4 10.6-.2.1-3.5 2-7.4 4.1-3.8 2.1-8.5 4.9-10.2 6.3l-3.3 2.4-.9-2.4c-.5-1.3-1.4-6-2.1-10.3-1.2-7.7-1.1-7.9 1.2-9.7 3-2.5 17.1-11.8 17.4-11.5.1.1 1.4 4.8 2.9 10.5zm-35-7.3c-.2 2.6-3.5 7.1-3.5 4.7 0-1.2 2.8-7.2 3.3-7.2.2 0 .2 1.1.2 2.5zm342.8 1.9l2.5 4.4-2.2.6c-1.5.4-2.7-.2-4.3-2.2-1.3-1.5-2.3-3.1-2.3-3.6 0-.7 2.8-3.4 3.7-3.6.1 0 1.2 2 2.6 4.4zm63.1-1.3c.3 1.7.6 4.9.6 7 0 3.9 0 3.9-3.9 3.9s-3.9 0-5-5c-1.5-7-1.4-7.8 1.2-8.3 5.6-1.1 6.4-.8 7.1 2.4zm108.8 1.1c5 1.3 7.7 2.6 7.4 3.3-.2.7-1.8 5.8-3.6 11.3-1.7 5.6-3.6 10.2-4.3 10.2-3.1 0-16.8-5.3-16.4-6.4.2-.6 1.5-5.5 2.8-10.9 2.7-11.2 2-10.8 14.1-7.5zM237 253.5v6.2c.1.9-15 3.4-16.6 2.9-.6-.3-1.4-2.2-1.7-4.3-.4-2.1-.9-5.3-1.3-7.1l-.6-3.2H237v5.5zm23.8-4.7c.8.6 1 2.2.6 5.4-.6 4.1-1 4.7-3.6 5.2-1.7.3-5 .6-7.3.6-4.9 0-5.5-.8-5.5-7.6V248h7.3c3.9 0 7.8.4 8.5.8zm77.5.8c4.1 2.1 3.9 1.8 3.1 3.8-.8 2-1.5 2-6 .1-3.1-1.3-3.4-1.7-2.4-3.5 1.3-2.4 1.3-2.4 5.3-.4zm-128.4 6.5c.7 3.8 1 7.3.7 7.6-.9.9-18.8 5.4-19.3 4.9-.3-.3-1.5-4-2.8-8.3-1.6-5.7-1.9-8-1.1-8.5.9-.5 11.7-2 19.7-2.7 1.2-.1 1.9 1.6 2.8 7zm244.5-6.3c.3.5.8 3.2 1.2 6l.7 5.2h-3.1c-2.7 0-3.2-.5-4.6-4.7-1.8-5.2-1.9-4.9 1.4-6.2 3.2-1.2 3.8-1.3 4.4-.3zm-172.1 1.9c.4.2.7 2.2.7 4.3v3.9l-6.7-.6c-3.8-.3-6.9-.6-7-.7-.1-.1.1-2.1.4-4.4l.6-4.3 5.6.7c3.1.3 5.9.8 6.4 1.1zm16.3 3.2c3.8 1 4 1.3 3.6 4.2-.3 2.1-.9 2.9-1.9 2.5-.8-.3-3.4-.6-5.7-.6h-4.2l.4-4c.3-3.2.8-4 2.1-3.6.9.3 3.4 1 5.7 1.5zm77.4.6c2 2.1 2.1 2.5.7 3-.8.4-2.7-.1-4.1-1.1-2.1-1.3-2.4-1.9-1.5-3 1.6-1.9 2.2-1.8 4.9 1.1zm-195.6 7.1c1.5 4.7 2.6 8.7 2.4 8.8-1.7.8-19.6 6.8-20.7 6.9-1.7.2-8.6-17.2-7.3-18.5.7-.7 19-5.5 21.8-5.7.7-.1 2.4 3.8 3.8 8.5zm218.4-4.7c3 4 .4 4.9-3.3 1.1-1.9-2-2.3-2.9-1.3-3.3 2.2-.9 2.3-.8 4.6 2.2zm38 1c1.5 5 1.6 4.8-1.2 5.3-2.1.4-2.5-.1-3.6-3.5-.9-3.2-.9-4.1.2-4.8 2.4-1.6 3.5-.9 4.6 3zM353 258c3.6 2.7 1.5 4.3-2.7 2.1-2.4-1.4-2.9-2.1-2.1-2.9 1.6-1.6 1.8-1.5 4.8.8zm262.7 1c12.3 4.8 12 1.2 2.2 26.7l-.8 2.3-4.8-2.4c-2.6-1.3-6.9-3.2-9.5-4.2-2.7-1-4.6-2.4-4.4-2.9.3-.6 1.9-5.3 3.6-10.5 1.7-5.2 3.3-10.1 3.5-10.8.6-1.7 1.3-1.6 10.2 1.8zm-299.3.5c3.2.7 3.4.9 2.4 3.1-.7 1.5-1.7 2.3-2.7 2-.9-.3-2.8-.8-4.2-1.1-2.1-.5-2.5-1.1-2.1-3.1.3-1.5 1-2.3 1.8-2 .7.3 2.8.8 4.8 1.1zm367.2 7l3.9 4.9-.1 9.3c0 5.1-.3 9.6-.7 9.9-.3.4-3.2-1.5-6.4-4.2-3.2-2.6-6.2-5.1-6.6-5.5-.5-.4.4-5.2 1.9-10.8 1.5-5.6 3-9.8 3.4-9.4.3.4 2.4 3 4.6 5.8zm-262.7-2.4c1.4 4.1 1.4 3.9-.7 3.9-2 0-4.6-4.5-3.7-6.1 1.2-1.9 3.3-.8 4.4 2.2zm-271.6 9.4c3.5 9 3.5 9 1.3 9.9-1.1.5-6.1 2.8-10.9 5.2-4.9 2.4-9 4.4-9.2 4.4-.7 0-4.3-7.5-6.6-13.7l-2.2-5.7 2.2-1.5c3.2-2.3 20.5-8.9 21.3-8.2.4.3 2.2 4.6 4.1 9.6zm182.6-8.1c3 1.7 1.2 3-2.9 2.1-2.9-.6-3.7-1.5-2.3-2.8.9-1 2.5-.8 5.2.7zm54.6 2.4c-.6.7-3.5-1.8-3.5-3.1 0-.5.9-.2 2 .8s1.8 2 1.5 2.3zm-21.2-1.4c1 .8 1.4 1.7.9 2-.6.3-2.1-.3-3.3-1.4-2.8-2.3-.5-2.8 2.4-.6zm132.5.6c1.2 0 1.3.9.8 5-1 7.6-1.3 8-5.8 8-4 0-4 0-3.4-3.1.3-1.7.6-5 .6-7.2 0-3.9 0-3.9 3.1-3.3 1.7.3 3.8.6 4.7.6zm-90.5 5.4c-.4.5-1.4-.1-2.5-1.3-1-1.3-1.5-2.8-1.2-3.3.4-.6 1.4-.1 2.5 1.3.9 1.3 1.5 2.8 1.2 3.3zm69.7.1v5.5h-7v-11h7v5.5zM77 283.9c0 .7-3.3 4.6-7.4 8.6l-7.5 7.3-.6-5.7c-.3-3.1-.7-6.5-.8-7.6-.1-1.8 6.1-12.1 10.2-16.8 1.4-1.7 1.7-1.4 3.8 5.5 1.2 4 2.3 7.9 2.3 8.7zm445.9-15c1.2.8 1.2 1.8-.3 7.3-2.4 8.9-2.4 8.9-7.6 7.6-2.5-.6-4.7-1.2-4.8-1.4-.4-.2 1.5-10.6 2.3-13.2.5-1.4 8.3-1.6 10.4-.3zm-177.1 2.9c.2.8-.5.9-2.7.1-1.7-.6-2.9-1.5-2.6-2 .7-1 4.8.4 5.3 1.9zm112 1.9c.3 4 .1 4.3-2.2 4.3-2 0-2.6-.5-2.6-2.3 0-1.2-.3-3.2-.7-4.5-.5-2.1-.3-2.3 2.3-2 2.6.3 2.9.7 3.2 4.5zm191 2.1c4.1 2.6 7.7 5.3 8 6.1.6 1.7-.8 5.7-5.7 16.1l-3.7 7.9-4-2.6c-2.1-1.5-6.2-4.1-9-5.8l-5.1-3.1 4.6-12.2c3.4-9 5-12.1 6-11.7.8.3 4.8 2.7 8.9 5.3zm-208-.5c.4 4.7-1.4 4.8-3.4.2-1.8-4.4-1.8-4.2.9-4 1.8.1 2.3.8 2.5 3.8zM549 273c1.4.4 2.4 1.3 2.2 2.1-.5 2.4-5.4 15.4-6.1 16.2-1.1 1.2-11.6-2.9-11.4-4.4.1-.8 1-4.7 1.9-8.7l1.8-7.3 4.5.7c2.5.4 5.7 1 7.1 1.4zm-287.2 3.2l-.3 4.3-5.9.7c-3.3.4-6.1.6-6.4.4-.2-.3-.6-2.2-.9-4.4-.6-4.5-.1-4.8 9-5.1l4.8-.1-.3 4.2zm19.2-1.3c0 3.1-1.8 4.1-7.7 4.1-3.1 0-3.3-.2-3.3-3.5V272h5.5c5.4 0 5.5.1 5.5 2.9zm-40.4 3.5l1 5.5-7.8 1.9-7.8 2-1.1-4.2c-.5-2.2-1.2-4.9-1.5-5.9-.3-.9-.4-1.7-.2-1.8.2 0 3.7-.6 7.8-1.3 4.1-.8 7.7-1.4 8-1.5.3 0 1 2.3 1.6 5.3zm55.2-4.8c1.3.4 2.2 1.4 2.2 2.5 0 1.6-.8 1.9-4.5 1.9-4.1 0-4.5-.2-4.5-2.5 0-2.6 1.9-3.2 6.8-1.9zm15.9 2.2c1.3.4 1.9 1.2 1.5 1.8-1 1.6-7.2.5-7.2-1.2 0-1.5 2-1.6 5.7-.6zm114.2 1.4c1.2 3.3.1 4.5-1.5 1.7-1.6-2.9-1.7-3.9-.4-3.9.6 0 1.4 1 1.9 2.2zm-210 3.5c2.5 9.6 3.1 8.5-5.8 11.8-4.4 1.6-8.3 2.7-8.8 2.5-1.3-.5-5.4-12.3-4.6-13.1.8-.7 14.5-4.6 17-4.8.7-.1 1.7 1.6 2.2 3.6zm362.2.6l3.6 1-4.3 9.6c-2.4 5.3-4.8 9.7-5.4 9.9-1.2.4-14-4.8-14-5.7 0-.3 1.6-4.7 3.6-9.7l3.6-9.3 4.6 1.6c2.6.8 6.3 2 8.3 2.6zM114 280.2c0 .5 1.8 4.9 4 9.6 2.2 4.7 3.9 8.6 3.8 8.7-.2.1-2.8 1.6-5.8 3.5-3 1.8-7.5 4.8-9.9 6.6-2.4 1.9-4.9 3.4-5.6 3.4-.7 0-3.1-4.4-5.3-9.7l-4-9.7 6.1-4.9c6.7-5.2 14.7-9.8 16-9 .4.2.7.9.7 1.5zm212.9-.6c1 .9-.6 1.2-3.1.7-1.5-.3-2.5-.9-2.2-1.5.5-.8 4.1-.2 5.3.8zm-136.2 11.9c1.7 4.1 2.6 7.5 2.1 7.5-.6 0-4.9 1.8-9.6 4-6.6 3.1-8.8 3.7-9.4 2.8-1.7-2.4-6.8-12.7-6.8-13.6 0-.5 1.2-1.5 2.8-2.2 2.5-1.2 16-5.9 17.2-6 .3 0 2 3.4 3.7 7.5zm253.3-1.4c0 1.1-.4 1.9-1 1.9-.5 0-1-.6-1-1.4 0-.8-.3-2.3-.7-3.3-.6-1.6-.5-1.6 1-.4.9.7 1.7 2.2 1.7 3.2zm15-.6c0 2.4-.5 3.5-1.5 3.5-.8 0-1.5-.6-1.5-1.3 0-.6-.3-2.2-.6-3.5-.5-1.8-.2-2.2 1.5-2.2s2.1.6 2.1 3.5zm17-1.6c0 1-.3 3.2-.6 4.9-.5 2.3-1 2.8-2.5 2.5-1.5-.4-1.9-1.5-1.9-4.9 0-4 .2-4.4 2.5-4.4 1.8 0 2.5.5 2.5 1.9zm136 8.3c0 1-8.3 16.5-10.2 19.1-1.2 1.6-1.8 1.4-9.1-2.4-4.3-2.2-7.7-4.4-7.5-4.9.2-.4 2.3-5.3 4.7-10.7l4.4-10 8.9 4c4.8 2.3 8.8 4.4 8.8 4.9zM430.3 290c.3 1.1.1 1.8-.4 1.4-.5-.3-.9-1.2-.9-2 0-2 .7-1.7 1.3.6zm64.6 2.7c-1.3 6.9-1.4 7-4.9 6.5-2.2-.3-3-.9-2.6-1.9.3-.8.6-3.2.6-5.4 0-3.9 0-3.9 3.9-3.9h3.8l-.8 4.7zM296 291.4c0 1.5-2.1 2.6-5.1 2.6-1.2 0-1.9-.7-1.9-2 0-1.6.7-2 3.5-2 2.3 0 3.5.5 3.5 1.4zm14-.4c0 .5-1.3 1-3 1-1.6 0-3-.5-3-1 0-.6 1.4-1 3-1 1.7 0 3 .4 3 1zm-29 2c0 1.4-1.1 2.2-3.7 2.9-5.1 1.5-5.3 1.4-5.3-1.2 0-3.2.7-3.7 5.2-3.7 3.1 0 3.8.4 3.8 2zm235.1-1c1.7 0 1.7.3-.3 6.2-1.1 3.5-2.4 6.6-2.7 7.1-.8.8-7.1-1.1-7.1-2.2 0-.4.5-3.4 1.2-6.5 1.1-5.7 1.2-5.8 4.1-5.2 1.6.3 3.8.6 4.8.6zm161.2 7.1l6.6 7-3.4 9.2c-4.4 12-4.6 12.7-5.2 12.7-.2 0-3-2.2-6.1-4.9-3.1-2.8-6.7-5.8-8-6.8l-2.4-1.8 3.7-8c2.1-4.4 4.3-9.5 5.1-11.3.8-1.7 1.8-3.2 2.3-3.2.5 0 3.9 3.2 7.4 7.1zM264.2 296c.4 2.8.2 3.1-3.6 4.1-2.3.5-4.8 1.2-5.7 1.5-.9.2-1.6-.1-1.6-.8 0-.7-.4-2.5-.8-4-.6-2.4-.4-2.7 2.7-3.1 8.2-1 8.5-.9 9 2.3zm-101.4 7.1c2.4 4.5 4.2 8.2 4 8.4-.2.1-3.4 1.9-7.3 3.8-3.8 2-8.4 4.5-10 5.6l-3.1 2-4.7-7.8c-2.6-4.4-4.7-8.4-4.7-8.9 0-1.6 17.7-11 21-11.1.3-.1 2.4 3.6 4.8 8zm83.2-.4c0 1.5-.3 1.7-6.9 4.2l-5.2 2.1-1.4-3.5c-2.4-5.5-2-6 4.8-7.6l6.2-1.5 1.2 2.5c.7 1.4 1.2 3.1 1.3 3.8zm289.1-5.2c2.4.9 5 1.7 5.7 2 .9.3.3 2.4-2.3 7.5-1.9 3.8-4 7-4.5 7s-2.7-.7-4.9-1.6l-3.9-1.5 2.5-7.5c1.4-4.1 2.6-7.4 2.8-7.4.1 0 2.2.7 4.6 1.5zM88.9 322c-1.7 1.3-5.6 5-8.7 8.2-3 3.2-5.8 5.8-6.2 5.8-1.2 0-8.1-18.1-7.3-19.3.4-.7 4.1-4.9 8.2-9.5l7.6-8.3 4.8 10.3 4.8 10.3-3.2 2.5zm370-19.8c0 .7-.4 2.2-.9 3.3-.7 1.7-.9 1.5-.9-1.3-.1-1.7.4-3.2.9-3.2.6 0 1 .6.9 1.2zm-234.3 4.6l2.1 4.9-6.6 2.9c-3.6 1.6-6.8 3-7.2 3.2-.8.3-6.4-9.8-5.7-10.2.8-.7 13.4-5.5 14.4-5.6.5 0 1.9 2.2 3 4.8zm476.9.2c.7 3.1.6 3.3-.9 2.1-.9-.7-1.6-2.7-1.6-4.4 0-3.9 1.5-2.5 2.5 2.3zm-228.1-3.1c1.1 1.7-.6 7-2 6.4-1.9-.7-1.9-7.3 0-7.3.8 0 1.7.4 2 .9zm161.1 4.8c4.7 3.1 8.4 5.9 8.3 6.3-1.2 2.9-13.5 20.8-14.2 20.7-.4-.2-4.3-2.7-8.5-5.7l-7.7-5.4 5.9-10.8c3.3-5.9 6.3-10.8 6.8-10.8s4.8 2.6 9.4 5.7zM295 306c0 .5-.3 1-.7 1-.5 0-1.8.3-3 .6-1.3.4-2.3.2-2.3-.4 0-1 1.9-1.8 4.8-2.1.6 0 1.2.3 1.2.9zm268.2 2l4.7 2-5 8.4-5 8.3-5.8-3.1-5.9-3 4-7.9c4.4-8.8 4.1-8.7 13-4.7zm-73 1.5c-.6 3.1-2.1 6.5-2.9 6.5-2.6-.1-3.2-1.7-2.1-5.7.9-3.7 1.2-4.1 3.2-3.3 1.3.4 2 1.5 1.8 2.5zm-208.6-.8c-.4 2.8-6 4.3-7 1.8-.4-1 .5-1.7 2.7-2.4 4.5-1.3 4.6-1.3 4.3.6zM52 310.4c0 1.4-.4 2.8-1 3.1-.6.4-1-.7-1-2.4s.5-3.1 1-3.1c.6 0 1 1.1 1 2.4zm82.1 8.9c2.7 4.3 4.9 8.2 4.9 8.5 0 .4-3.1 2.7-6.8 5.2-3.6 2.5-8.1 5.7-9.8 7.3l-3.2 2.7-5.6-8c-3.1-4.4-5.9-8.6-6.1-9.3-.7-1.9 17.7-15 20.4-14.5.8.2 3.6 3.8 6.2 8.1zm68.3-2.8c1.6 3.1 2.7 5.7 2.5 5.9-.2.2-3.8 2.2-8 4.5l-7.6 4.1-3.7-5.5c-2-3-3.6-5.9-3.6-6.5 0-1.4 13-7.7 16.5-7.9.6-.1 2.3 2.4 3.9 5.4zm64.6-3.2c0 2.9-6.8 6.7-8.1 4.5-1.8-2.8-.9-4.6 2.9-5.6 5.3-1.4 5.2-1.4 5.2 1.1zm241.9 2.4c-.5 1.3-1.5 3.6-2.4 5.3-1.4 2.7-1.8 2.8-4 1.8-2.9-1.3-2.9-1.2-.9-7l1.5-4.6 3.4 1.1c3 .9 3.2 1.2 2.4 3.4zm-51.2 2.5c-.3.7-.5.2-.5-1.2s.2-1.9.5-1.3c.2.7.2 1.9 0 2.5zm-205.7 3c0 .4-2.2 1.9-5 3.3l-4.9 2.5-1.6-2.9c-1.7-3.4-1.5-3.6 5-6.2 3.9-1.6 4-1.6 5.2.5.7 1.1 1.2 2.4 1.3 2.8zm341.4 2c1.7 1.4 1.5 1.9-4.4 10.2-3.4 4.8-6.6 8.6-7 8.4-.4-.2-3.4-2.1-6.7-4.2l-6-4 3.9-6.5c2.2-3.6 4.6-7.6 5.4-8.9l1.4-2.2 5.8 2.9c3.1 1.6 6.5 3.6 7.6 4.3zm-123.3-1.1c-.9 2.3-1 2.2-1-1.1-.1-2.3.2-3.1.9-2.4.7.7.7 1.9.1 3.5zm59.9.4c0 .5-1.4 3.2-3.2 6.1l-3.1 5.2-3.4-1.6c-4-1.9-4-2.8-.8-9.2l2.5-4.9 4 1.7c2.2.9 4 2.1 4 2.7zm169.9 9.3c1 3.1.9 5.1-.6 12.2-1 4.9-2.3 8.5-3 8.5-.7 0-3.4-2.9-6.1-6.4l-5-6.4 3.4-6.6c1.8-3.6 3.8-7.9 4.4-9.6l1.2-3 2.2 3.8c1.3 2 2.8 5.4 3.5 7.5zm-416.4-8.9c.6 1-2.5 3.1-4.4 3.1-1.8 0-1.2-2.8.7-3.3 2.8-.8 3.1-.7 3.7.2zm201.3 4.3c-.6 1.5-1.6 2.8-2.4 2.8-1.6 0-1.7-.5-.8-4.8.5-2.6.9-2.9 2.4-2 1.5.9 1.6 1.7.8 4zm-306.5 2c5.1 7.2 5.8 5.4-6.4 14l-6.5 4.6-4.8-5.9c-2.7-3.3-4.9-6.7-5-7.5-.1-1.1 3-3.4 8.4-6.5 4.6-2.7 8.7-4.9 9.1-4.9.4 0 2.7 2.8 5.2 6.2zm56.7 1.3c0 1-9 6.5-10.6 6.5-.5 0-2-1.7-3.2-3.6-2.7-4.2-2.7-4.1 5.3-7.9l5-2.3 1.7 3.2c.9 1.7 1.7 3.5 1.8 4.1zm427.6.6l7.3 7.1-2.9 5.2c-1.6 2.8-4.8 7.7-7.1 10.8l-4.1 5.7-7.9-7.2c-4.4-4-7.9-7.5-7.9-8 0-1.4 13.3-20.7 14.3-20.7.5 0 4.2 3.2 8.3 7.1zM388 326.5c13.5 3.6 25.5 13.6 31.8 26.5 3.5 7.2 3.6 7.9 3.6 18.5.1 13-.1 13.9-4.9 23.6-15.6 31.1-59.3 35.1-80.5 7.2-8.4-11-11.7-25-9.1-38.7 3.3-17.8 19.5-34.4 36.6-37.7 5.8-1.1 17.3-.8 22.5.6zm-117 2c0 1.6-5.4 4.8-6.4 3.8-1.2-1.2-.6-2.2 2.2-3.7 3.5-1.9 4.2-1.9 4.2-.1zm277.1 2.1c3 1.7 4.6 3.1 4.1 3.8-.4.7-2.6 3.7-5 6.8l-4.3 5.7-3.9-2.7c-2.2-1.5-3.9-3-4-3.3 0-.8 7.2-12.9 7.8-12.9.2 0 2.6 1.2 5.3 2.6zM60.2 353.4c-3.1 4.7-6 8.5-6.3 8.6-.4 0-1.5-3.2-2.4-7.1-2-8.2-1.4-11.7 3.7-20.7l3-5.2 3.8 7.9 3.9 8-5.7 8.5zm439.7-18.3c-2.1 4.1-2.5 4.4-4.8 3-1.3-.8-1.2-1.5.3-4.9 1.7-3.7 2-4 4.2-3l2.3 1.1-2 3.8zm-394 5l6.3 9.1-9.2 8.9c-7.4 7.2-9.5 8.7-10.6 7.8-.8-.7-3.7-4.6-6.5-8.7l-5-7.5 3.8-4.1c9-9.8 13.8-14.6 14.3-14.6.3.1 3.4 4.2 6.9 9.1zm509.1-2.6c4 3 7.5 5.7 7.8 5.9.2.3-2.8 4.3-6.9 8.8-4 4.6-7.6 8.7-8 9.2-.4.5-3.9-1.8-7.7-5.1l-6.9-5.9 6.6-9.2c3.6-5 6.9-9.1 7.2-9.2.3 0 3.8 2.5 7.9 5.5zm-400.2 0c1.2 1.9 2.2 3.8 2.1 4.2 0 .9-9.3 8.1-11.3 8.9-1.4.6-7.8-7.4-7.3-9 .4-1.1 11.7-7.6 13.2-7.6.6 0 2 1.6 3.3 3.5zm42.7-1.8c.4 1.3-.2 2.5-2.2 4-3.5 2.8-4.5 2.9-6.1.3-1.1-1.8-.9-2.2 2-4 4.1-2.5 5.4-2.5 6.3-.3zm221.3 4.8c-1.6 3.5-2.9 3.1-1.7-.5.6-1.6 1.5-2.8 2-2.5.4.3.3 1.7-.3 3zm37.9-1.2l2.3 1.3-2.6 3.9c-3.9 5.8-4 5.9-6.6 3.9l-2.5-1.8 2.6-4.3c2.8-4.6 3.4-4.9 6.8-3zm-363.5 6.8l5.6 6.6-8.4 7.7c-4.6 4.3-8.8 7.6-9.3 7.4-.5-.2-3.7-3.4-7.1-7.2l-6.2-6.9 2.4-2.3c2.9-3 16.1-12.4 16.9-12.1.3.1 3.1 3.2 6.1 6.8zm422.8 2.7c-.1.4-2.9 3.8-6.3 7.6l-6.3 6.8-4.7-4.1c-2.6-2.2-4.9-4.2-5-4.4-.1-.3 2.3-3.6 5.3-7.4l5.5-7 5.8 3.9c3.1 2.1 5.7 4.2 5.7 4.6zm-301.9-4.6c-1.3 1-2.8 1.5-3.4 1.1-.6-.4-.1-1.3 1.2-2.5 1.3-1 2.8-1.5 3.4-1.1.6.4.1 1.3-1.2 2.5zm-31.2.4c1.1 2.4.9 2.9-2.6 5.9l-3.8 3.3-2.2-2.1c-3.2-2.9-2.9-3.8 2-6.9 5.3-3.3 5.1-3.3 6.6-.2zm249.4 1c.7.7-2.3 6.4-3.3 6.4-1.7 0-1.8-1.5-.4-4.1 1.4-2.9 2.5-3.5 3.7-2.3zm-297.4 6c2.8 3.8 3.1 4.8 2 5.8-.8.7-3.8 3.5-6.7 6.1l-5.3 4.8-4.9-4.8c-2.8-2.7-5-5.2-5-5.6 0-1.2 13.4-10.8 15-10.8.8 0 3 2 4.9 4.5zm339.4-.9l3.8 2.7-5 4.9-4.9 5-3-2.5-3-2.5 3.6-5.2c1.9-2.8 3.8-5.1 4.1-5.1.3 0 2.2 1.2 4.4 2.7zm-269.6-.1c.1.5-.9 1.7-2.3 2.8-2 1.4-2.9 1.5-3.7.7-.9-.9-.6-1.7 1.3-3.1 2.5-2 4.2-2.1 4.7-.4zm208.4 2.1c-1.2 2-1.4 1.4-.5-1.2.4-.9.9-1.4 1.1-1.1.3.2 0 1.3-.6 2.3zm210.6 2.8c1.7 2.2 4 5.9 5.1 8.1l2.1 4.2-3.2 5.3c-5.7 9.4-9 14-9.8 13.7-.8-.3-12.9-15.8-12.9-16.5 0-.3 2.8-4 6.1-8.2 3.4-4.2 6.6-8.6 7.2-9.9.6-1.2 1.3-1.9 1.7-1.5.4.5 2 2.6 3.7 4.8zm-455.9.6l2.4 2.9-4.9 4.4-4.8 4.5-3.4-3.4-3.5-3.4 2.5-1.9c1.3-1.1 3.5-2.9 4.9-4 3.3-2.8 4-2.7 6.8.9zm414 4.1c4 3.9 7.2 7.5 7.2 8 0 1-16.8 17.3-17.8 17.3-.4 0-3.7-3.2-7.4-7.1l-6.7-7 8-9.2c4.4-5.1 8.4-9.2 8.8-9.2.4 0 4 3.2 7.9 7.2zM506 355.5c1 1.2.7 2.1-1.8 4.9-2.7 3.1-3.1 3.3-4.5 1.9s-1.3-1.9.6-4.9c2.4-3.7 3.8-4.2 5.7-1.9zm88.8 7.4c2.8 2.5 5.2 5 5.1 5.5 0 .6-3.5 4.1-7.7 7.8l-7.7 6.7-5.2-5.2c-2.9-2.8-5.3-5.5-5.3-6 0-1.7 13.3-14.6 14.4-14 .6.4 3.5 2.7 6.4 5.2zm-342.3-2.8c.5 1.5-.1 2.9-2 4.9l-2.8 2.9-1.8-2.2c-1.7-2.1-1.7-2.3.9-5 3.1-3.2 4.8-3.4 5.7-.6zm230.9 1.4c-.9 1.4-2 2.2-2.5 1.9-.5-.3-.2-1.6.7-2.9.9-1.4 2-2.2 2.5-1.9.5.3.2 1.6-.7 2.9zm-402.5 5.7c3.3 4.3 6.1 8.1 6.1 8.4 0 .4-2 3-4.3 5.8-2.4 2.8-5.6 7.2-7.1 9.8-1.5 2.7-2.9 4.8-3.1 4.8-.2 0-2.9-3.8-5.9-8.5l-5.6-8.6 1.6-3.2c2.9-5.4 10.7-16.8 11.4-16.5.4.2 3.5 3.8 6.9 8zm47.3.3l6.7 7-8 9.3c-4.4 5-8.3 9.2-8.7 9.2-.4 0-4.1-3.3-8.1-7.4l-7.4-7.5 3.2-3.8c3.9-4.6 14.4-14.3 15.1-14 .3.1 3.5 3.4 7.2 7.2zm142.1-3c-1.1 1.4-2.2 2-2.7 1.4-.6-.5-.2-1.6.9-2.9 2.4-2.7 3.9-1.5 1.8 1.5zm286.5 4.6c-.2.5-3 3.1-6.2 5.7l-5.9 4.9-3.8-3.6-3.8-3.6 5.6-5.7 5.6-5.7 4.4 3.6c2.4 2 4.2 4 4.1 4.4zm-385 12.6c-8 8.1-7.3 8-15.3.8l-5-4.6 7.9-7.5 8-7.5 5.8 5.8 5.8 5.7-7.2 7.3zM520 367l2.5 1.9-4.3 4.3-4.3 4.3-1.9-2.5c-1.8-2.4-1.8-2.4 1.2-6.2 1.6-2.1 3.3-3.8 3.6-3.8.4 0 1.8.9 3.2 2zm188 2.2c-.1 3.9-.2 4.1-1.5 2.5-1-1.5-1.1-2.5-.3-4.3 1.5-3.3 1.8-3 1.8 1.8zm-494.3 4.9c-.1.3-2.3 3-5 5.9l-4.7 5.2-4.5-3.7c-2.5-2-4.5-4-4.5-4.4 0-.8 5.2-5.8 9.5-9l2.9-2.2 3.3 3.8c1.8 2.1 3.1 4.1 3 4.4zm281.7-5.2c.3.5-.4 2.1-1.5 3.5-1.7 2.2-2.4 2.4-3.5 1.5-1.3-1-1.1-1.5.7-3.6 2.4-2.5 3.5-2.8 4.3-1.4zm-257.1 8.6l-3.7 4.2-2.3-2.1c-3.1-2.6-2.9-3.3 1.5-7.2l3.7-3.2 2.2 2 2.2 2.1-3.6 4.2zm22.4-1.5c-1.5 1.9-2.6 2.5-3.4 1.8-1-.8-.8-1.7 1-3.8 1.5-1.9 2.6-2.5 3.4-1.8 1 .8.8 1.7-1 3.8zm-214.3-1.4c.3.8-.1 2.7-.9 4.2l-1.4 2.7-.1-4.3c0-4.2 1.2-5.6 2.4-2.6zm488.8 13.3c-1.8 1.5-4.3 3.4-5.7 4.1-2.1 1.1-2.6 1-4.9-1.6l-2.5-2.9 4.7-4.8 4.6-4.7 3.6 3.6 3.5 3.5-3.3 2.8zm37.5-4.7l5.2 5.2-8.1 5.6-8.2 5.7-4.1-5-4.1-5.1 6.5-5.8c3.6-3.1 6.8-5.7 7.1-5.8.2 0 2.8 2.3 5.7 5.2zm45.2 2.1c4.9 5.4 6 7.2 5.1 8.2-.6.8-5 4.2-9.7 7.6l-8.6 6.2-1.9-2.4c-1-1.3-3.7-4.5-5.8-7.1l-4-4.6 8.6-7.7c4.7-4.2 8.9-7.5 9.4-7.3.4.2 3.5 3.4 6.9 7.1zm-134.5-2.9c-2.4 1.8-2.9 1.4-1.4-1.4.9-1.6 1.5-1.9 2.3-1.1.8.8.6 1.5-.9 2.5zm21.5 2.8c-3.9 3.3-4.5 3.4-5.3 1.1-.4-1 .3-2.6 2-4.5 2.6-2.7 2.8-2.7 4.7-1.1 1.8 1.7 1.8 1.8-1.4 4.5zm158.1-.7c2.3 3 4.9 7 6 8.8l1.9 3.2-8.5 9.3c-4.7 5-9 9-9.4 8.7-.5-.3-3.7-4.4-7.1-9.2l-6.3-8.6 9-8.8c4.9-4.8 9.2-8.7 9.6-8.8.4-.1 2.6 2.4 4.8 5.4zm-411.4 4c-2.1 3.8-3.6 4.4-5.6 2-1-1.2-.7-2.1 1.5-5.1 2.5-3.3 2.9-3.5 4.3-2 1.5 1.5 1.5 1.9-.2 5.1zM270 386c-.6 1.1-1.5 1.8-2.1 1.5-.5-.4-.1-1.6.8-3 2.1-2.7 3-1.6 1.3 1.5zm-75.5 1.9c2.7 2.3 3.6 3.7 2.9 4.6-.5.7-2.9 4-5.3 7.3l-4.4 6.1-5.9-4c-3.2-2.2-5.8-4.4-5.8-5 0-2 12.2-13.9 13.5-13.1.7.4 2.9 2.2 5 4.1zm32.7-2.2l2.7 2.6-3.1 4.1c-1.7 2.3-3.5 4.5-3.9 5-.8.9-7.9-3-7.9-4.3 0-1 7.9-10.1 8.8-10.1.3 0 1.8 1.2 3.4 2.7zm-75.3 4c3.6 3.1 6.8 5.8 6.9 5.9.2.1-2.9 4.3-6.9 9.3-4.4 5.6-7.7 8.8-8.4 8.3-7-4.3-14.4-10.6-13.8-11.6 1.1-1.8 14.7-17.6 15.2-17.6.2 0 3.4 2.6 7 5.7zm549 2.6l2.1 6.8-4.7 9.2c-4.3 8.7-4.6 9.1-5.6 6.7-.6-1.4-2.3-5.1-3.8-8.2l-2.8-5.7 5.7-8.5c3.1-4.6 6-8.1 6.4-7.8.3.4 1.5 3.8 2.7 7.5zm-590 7.3c1.2 1.1.3 3-5.3 11.8-3.7 5.8-7.3 10.6-8 10.6-1.5 0-15.2-13.7-14.9-15 .4-1.4 8.1-14 11-17.8l2.5-3.3 6.6 6.2c3.7 3.5 7.3 6.8 8.1 7.5zm380.6-3.8c-2.6 2.2-2.9 2.3-3.8.6-.8-1.4-.4-2.2 1.9-4 2.6-2.1 2.9-2.2 3.8-.7.7 1.2.2 2.2-1.9 4.1zM63 401.6l3.6 4.9-2.3 4c-1.3 2.2-3.1 6.4-4 9.2-.9 2.9-1.9 5.3-2.2 5.3-.3 0-2.1-2.9-4-6.3-3.4-6.4-3.4-6.4-2.2-12.8.7-3.5 1.7-8.2 2.3-10.4l1-4 2.2 2.6c1.1 1.5 3.7 4.8 5.6 7.5zm457-3.8c0 .8-9 6.6-9.4 6.1-.2-.2-.9-1.5-1.6-2.8-1.2-2.3-1-2.7 2.6-5.8l3.9-3.3 2.3 2.6c1.2 1.4 2.2 2.8 2.2 3.2zm-255.7-3.2c.3.3-.2 2.1-1 4-1.3 2.6-1.9 3.1-3 2.3-1-.9-1-1.7.4-4 1.7-2.9 2.5-3.4 3.6-2.3zm287.1 5.1c2 2.5 3.5 4.8 3.3 4.9-.2.2-3.5 2.1-7.4 4.3l-7.2 3.9-2.6-4c-1.4-2.2-2.5-4.3-2.3-4.8.3-.9 10.8-8.8 11.9-8.9.4-.1 2.3 2 4.3 4.6zm-309-1.8c1.7 1.9 1.7 2.2-.5 6-1.2 2.3-2.7 4.1-3.1 4.1-.8 0-4.7-1.8-5.6-2.6-.5-.3 6.1-9.3 6.9-9.4.3 0 1.4.9 2.3 1.9zM595.2 409l2.7 3.6-9.4 5.2c-5.1 2.9-9.7 5.2-10.2 5.2-.4 0-2.5-2.8-4.6-6.2-4.4-7.1-4.7-6.3 5.8-13.6l7-4.8 3 3.5c1.7 1.9 4.2 5.1 5.7 7.1zM217 405.3c0 .5-1.7 3.7-3.7 7.1l-3.7 6.3-5.2-3-5.3-3 3.1-4.6c1.7-2.5 4-5.6 5-6.8l2-2.1 3.9 2.6c2.1 1.5 3.8 3.1 3.9 3.5zm263.5-2.6c-2.8 2-4.1 1.6-2-.7 1-1.1 2.2-1.7 2.8-1.3.6.4.3 1.2-.8 2zM274.9 406c-.6 1.6-1.5 2.8-2 2.5-.9-.6 1-5.5 2.2-5.5.4 0 .3 1.3-.2 3zm228.3.7c.7.8-.3 1.8-3.3 3.3-3.4 1.8-4.3 1.9-5 .8-1.3-2-1.2-2.4 2.9-5 2.3-1.6 3.8-2.1 4.1-1.4.2.6.8 1.6 1.3 2.3zm136.2 5.7c3.3 4.7 5.7 8.7 5.5 8.9-.2.1-2.5 2-5.2 4.1-2.6 2.1-7.3 5.3-10.4 7.2l-5.6 3.3-5.3-8.5c-3-4.7-5.4-8.8-5.4-9.2.1-.4 3.9-3.4 8.6-6.7 4.7-3.3 9-6.6 9.6-7.2.6-.7 1.3-1.1 1.7-.9.3.2 3.3 4.3 6.5 9zm-462.9-4.1l6.5 4.4-3.9 5.4c-2.1 3-4.6 6.9-5.5 8.7l-1.7 3.3-7.2-3.9c-4-2.1-7.2-4.4-7.2-5.1 0-1.1 11.4-17 12.3-17.1.1 0 3.2 2 6.7 4.3zm80.3-.5c1 .7 1 1.6.2 3.8-.6 1.6-1.3 3.5-1.5 4.1-.3 1-1 1-2.9.1l-2.6-1.1 2.2-3.9c2.3-4 2.6-4.2 4.6-3zm213.2.7c0 .2-1 .9-2.2 1.5-2.2 1.1-2.2 1-.4-.4 2.1-1.7 2.6-1.9 2.6-1.1zm61.5 5.6c1.3 2.5 1.3 2.6-4.8 5.7l-6.1 3.2-1.8-3.2c-.9-1.8-1.7-3.6-1.8-4 0-.4 2.4-2.3 5.3-4.2 5.7-3.7 6-3.6 9.2 2.5zm-399.3 2c4 2.9 7.4 5.4 7.6 5.5.4.2-10.6 18.4-12.3 20.2-.9 1-2.9.1-9.9-4.4-4.8-3.1-8.6-6-8.4-6.3 1.8-4.2 13.6-21 14.5-20.7.6.3 4.5 2.8 8.5 5.7zm550.1 3l3.8 9.2-4.4 5.5c-2.4 3.1-6.2 7.1-8.5 9l-4.1 3.4-4.6-9.9-4.6-9.8 3.2-2.5c1.7-1.3 5.6-5 8.7-8.2 3-3.2 5.8-5.8 6.2-5.8.3 0 2.3 4.1 4.3 9.1zM235 416.7c0 .8-1.1 3.6-2.5 6.3l-2.5 4.9-4-1.7c-2.2-.9-4-2-4-2.4 0-.3 1.4-3.1 3.2-6.1l3.1-5.5 3.4 1.6c1.8.9 3.3 2.2 3.3 2.9zm253-1.1c0 1-4.1 3.4-5.9 3.4-.5 0-1.1-.6-1.4-1.4-.7-1.9 5.4-5.8 6.5-4.2.4.6.8 1.6.8 2.2zm-217.5 4.8c-.6 3-1 3.4-2.1 2.5-1.7-1.4-1.7-2-.4-5.5 1.5-3.9 3.3-1.7 2.5 3zm298.2 3.5l2.2 3.9-8.4 3.6c-4.6 2-8.7 3.6-9.2 3.6-1.3 0-6.9-11.3-5.8-11.7.6-.2 4.2-2.1 8-4.3l7-3.9 2 2.4c1.1 1.4 3 4.2 4.2 6.4zm-483.7.7c4.1 3.6 7.5 6.8 7.5 7.2 0 .4-2.2 5.8-4.9 12l-5 11.3-5.4-5.3c-10-9.9-9.8-8.9-5-21.2 2.2-5.8 4.4-10.6 4.7-10.6.3 0 4 3 8.1 6.6zm426.5-2.5c.9 1.7 1.5 3.2 1.3 3.4-.2.2-2.7 1.3-5.6 2.4l-5.3 2.1-.9-2.6c-1.4-3.7-1.4-3.8 3.3-6.1 5.5-2.8 5.4-2.8 7.2.8zm-311 .7l5 2.7-4 8.1c-3.5 7.1-4.2 8-6 7.3-1.1-.5-4.2-1.8-6.8-2.9l-4.8-2 1.7-3.1c2.1-4.2 8.4-12.9 9.2-12.9.4.1 3 1.3 5.7 2.8zM474 421c0 1.3-4.1 3-5.4 2.2-.7-.4 2.3-2.2 5.2-3.1.1-.1.2.4.2.9zm-222.5 5.8c-.3 1.4-1.1 3.7-1.8 5.2-1.1 2.6-1.4 2.7-4.3 1.6l-3.2-1.1 2.4-5.3c2.2-5 2.4-5.2 4.9-4 2.1.9 2.5 1.7 2 3.6zm32.1-3.2c-.3.9-.6 2.3-.6 3.2 0 1-.3 1.3-1 .6-1.1-1.1-.2-5.4 1.2-5.4.6 0 .7.7.4 1.6zm327.1 19.7c-5.3 3.1-16.7 8.1-17.2 7.5-.1-.2-2.1-3.8-4.4-8-3.9-7.2-4.1-7.8-2.4-8.8 1-.6 5.6-3.3 10.3-5.9l8.5-4.7 5.2 8.5 5.2 8.5-5.2 2.9zM461 426.4c0 .2-.9.6-2 .9-1.1.3-1.8.1-1.4-.4.5-.9 3.4-1.3 3.4-.5zm32.1 6.7c-.9.4-3.1 1-4.8 1.3-3 .7-3.3.5-3.3-1.6 0-1.7.9-2.7 3.8-3.9 3.7-1.5 3.7-1.5 4.8 1 .9 2.1.8 2.7-.5 3.2zm51.6 5.6c-1.2 1.2-15.2 5.4-15.4 4.7-.2-.5-1.2-2.7-2.1-4.9l-1.8-4 7-3.5 7.1-3.5 2.8 5.4c1.6 2.9 2.6 5.5 2.4 5.8zM159.1 433c3.9 2.2 7.5 4 8 4 1 0-9.2 20.8-10.2 20.9-.3.1-4.5-1.7-9.4-3.9-8.4-4-8.6-4.1-7.3-6.3.8-1.2 3.7-5.9 6.4-10.5 2.7-4.5 5-8.2 5.2-8.2.1 0 3.4 1.8 7.3 4zm107.6-2.2c.9.6.9 1.8.1 4.9-.9 3.7-1.2 4.1-3.2 3.3-2.1-.8-2.3-2.1-.6-6.6 1-2.5 1.7-2.9 3.7-1.6zm435.2 4.3c-1.2 3.9-1.4 4-1.9 1.8-.4-1.4 0-3.4.8-4.7 2.1-3.3 2.5-2.1 1.1 2.9zm-477.6 7.6c-1.7 5-2.9 7.3-3.8 6.9-.7-.2-3.1-1-5.4-1.7-2.3-.7-4.1-1.8-4.1-2.6 0-.7 1.4-4.2 3.1-7.7l3.1-6.4 4.8 2 4.8 2-2.5 7.5zm253.3-7.7c0 1.4-1 2.3-3.1 2.9-3.4.9-4.5.6-4.5-1.4 0-.7 1.7-1.7 3.8-2.3 2-.5 3.7-1 3.7-1.1.1-.1.1.8.1 1.9zm179.3 9c2.6 6.3 3.6 9.8 3 10.6-1.1 1.4-17.9 12.1-19.6 12.6-.8.2-3.1-3.8-5.8-9.6-2.4-5.5-4.4-10-4.2-10.1.1-.1 2.9-1.8 6.2-3.8 3.3-2 8-5.2 10.5-7.1 2.5-1.9 4.8-3.2 5.2-2.8.4.4 2.5 5 4.7 10.2zm-375.3-4.7c-.8 3.7-1.3 4.4-2.6 3.1-1.6-1.6-.1-7.4 1.7-6.7 1.1.4 1.3 1.4.9 3.6zM53 442.4c-.1 3.5-1.2 2.1-2.4-2.8-.6-2.6-.5-2.8.8-1.7.9.8 1.6 2.8 1.6 4.5zm467-.8c.7 2 .8 3.9.4 4.4-1.5 1.3-11.8 4-12.6 3.2-.3-.4-.9-2.3-1.3-4.2l-.6-3.5 5.8-2.1c3.2-1.2 6.1-2 6.5-1.7.3.2 1.2 1.9 1.8 3.9zm-58-2.1c-1.4 1.6-5 2.1-5 .6 0-.8 1.5-1.4 5.4-2 .5 0 .3.6-.4 1.4zM295 442c0 1.6-.4 3-1 3-.5 0-1-1.4-1-3 0-1.7.5-3 1-3 .6 0 1 1.3 1 3zm286.5 4c1.9 3.8 3.5 7.4 3.5 7.9 0 1.4-19.6 8.9-20.5 7.8-.2-.1-1.6-3.4-3.2-7.4l-3-7.1 8.4-3.3c4.6-1.8 8.6-3.6 8.9-4.1 1.2-1.9 2.6-.4 5.9 6.2zm-466 1.2c3.9 2.3 7.2 4.3 7.4 4.5.2.1-2 5.6-5 12.2l-5.3 12.1-4.5-2.7c-2.5-1.4-6.7-4.1-9.3-6l-4.8-3.4 1.5-3.7c.9-2 3.2-7.4 5.3-11.9 3.5-7.8 3.8-8.1 5.7-6.8 1.1.8 5.2 3.4 9 5.7zm127.4-6.1c3.5 1.2 3.5 1.4 2 9.1l-1.1 5.5-3.8-1.1c-2.1-.6-4.2-1.4-4.5-1.8-.8-.8 2.8-12.8 3.9-12.8.2 0 1.7.5 3.5 1.1zm-55.4 5.5c3.6 1.4 6.5 3 6.5 3.4 0 .5-1.3 3.7-2.8 7.2-1.6 3.4-3.2 7.5-3.5 9l-.7 2.6-6.7-2c-11.3-3.4-10.9-2.5-5.6-13.3 2.6-5.2 5.1-9.5 5.5-9.5.4 0 3.7 1.2 7.3 2.6zm311.8 1.7c.5 1.6.7 3 .6 3.1-.2.2-2.9.7-6 1l-5.7.7-.4-3.1c-.4-2.6-.1-3.1 2.1-3.6 1.4-.3 3.1-.7 3.6-.9 2.6-.9 4.9.2 5.8 2.8zm-234.7.4c-.3.8-.6 3.4-.6 5.7v4.2l-3.9-.4-3.8-.4.9-4.6c1.4-7 1.3-6.9 4.8-6.4 2.2.3 3 .9 2.6 1.9zm426.3 7.6c.1 6.6-2.4 11.8-8.2 17.5l-3.5 3.4-2.1-7c-1.1-3.9-2.1-7.7-2.1-8.5 0-.9 3.3-4.5 7.2-8.1 8.2-7.5 8.6-7.4 8.7 2.7zM480 452c0 2.9-.2 3-4.5 3-3.8 0-4.5-.3-4.5-2 0-1.3 1-2.2 3.3-2.9 5.2-1.5 5.7-1.3 5.7 1.9zm-199 3.6c0 4-.2 4.4-2.5 4.4-2.7 0-3-1.2-1.9-6.8.5-2.3 1-2.8 2.5-2.5 1.5.4 1.9 1.5 1.9 4.9zm274.7 7.8c-.3.7-3.4 2-6.9 2.9-12.5 3.3-11.6 3.3-12.7-1-2.6-9.8-2.8-8.9 3.1-10.7 2.9-.9 6.7-2.3 8.3-3l3-1.3 2.8 6c1.6 3.3 2.6 6.5 2.4 7.1zM463 454c0 1.6-.7 2-3.5 2-3.5 0-5-2.2-2.2-3.3 3.1-1.3 5.7-.7 5.7 1.3zm-166.6.6c1.2 3.2.6 5.4-1.4 5.4-1.6 0-2-.7-2-3.5 0-3.7 2.2-4.9 3.4-1.9zm327 .6c2.2 3.6 6.8 16.7 6.2 17.6-.6 1.1-22.5 10.7-22.9 10.1-.2-.2-1.7-4-3.4-8.4-1.6-4.4-3.3-8.7-3.7-9.6-.5-1.2.5-2.1 4.8-3.7 3-1.1 7.8-3.4 10.8-5.1 2.9-1.7 5.6-3.1 6-3.1.4 0 1.4 1 2.2 2.2zM215 456.5c1.9.7 3.4 1.9 3.4 2.6-.2 1.4-3.6 15.1-4 15.7-.3.5-12.8-2-13.7-2.8-.7-.6.5-4.2 4.8-14.3 1.7-4.1 1.3-4.1 9.5-1.2zm95.3-.3c.4 1.2.4 2.4.1 2.7-.6.7-2.4-2-2.4-3.7 0-2.1 1.7-1.3 2.3 1zM448 455c0 .5-1.3 1-3 1-1.6 0-3-.5-3-1 0-.6 1.4-1 3-1 1.7 0 3 .4 3 1zm-375.3 5.2c3.2 2.9 5.9 5.3 6.1 5.4.4.2-4.5 19.4-5 19.9-.2.2-2.2-2-4.5-5-3.5-4.5-4.3-6.4-4.8-11.2-.6-6.3.3-14.3 1.5-14.3.5 0 3.5 2.3 6.7 5.2zm454.8 3.9c1 3.9 1.1 5.5.3 6-.9.6-12 2.1-14.5 2-.4 0-1.2-2.2-1.8-4.8l-1-4.8 7.5-2.1c4.1-1.2 7.6-2 7.8-1.9.2.2 1 2.7 1.7 5.6zM145.4 463l8.6 3.9-3.1 8.3c-1.7 4.6-3.6 9.8-4.2 11.5-.6 1.8-1.5 3.3-2.1 3.3-2.7 0-18.6-7.4-18.6-8.7 0-.8 1.4-4.6 3.1-8.6 1.7-4 3.7-8.7 4.5-10.5.8-1.7 1.8-3.2 2.3-3.2.5 0 4.8 1.8 9.5 4zm93.1-.4c3.1.6 3.6 1 3.1 2.8-.3 1.1-.9 4.7-1.3 7.9l-.6 5.7-3.6-.5c-9.4-1.5-9.4-1.4-6-11.4 1.4-4.2 2.6-6.1 3.4-5.7.8.3 3 .8 5 1.2zm265 5.5c.4 2.2.5 4.3.2 4.6-.3.3-3.5.8-7.1 1l-6.6.6v-9.2l4.3-.4c2.3-.2 5.2-.4 6.4-.5 1.8-.2 2.2.5 2.8 3.9zM329 470.2c0 .5-.5.8-1 .8-1.3 0-3-4.1-2.2-5.4.5-.8 3.1 3 3.2 4.6zm12-4.2c0 .5-.2 1-.4 1-.3 0-.8-.5-1.1-1-.3-.6-.1-1 .4-1 .6 0 1.1.4 1.1 1zm88.8 0c1 0 1.3.3.6 1-1.1 1.1-5.4.2-5.4-1.2 0-.6.7-.7 1.6-.4.9.3 2.3.6 3.2.6zm-167.2 2.2c-.3 1.3-.6 4.4-.6 7 0 4.7 0 4.8-3.2 4.8-5.4 0-6.2-1.1-5.4-7.1.4-2.9.9-5.6 1.2-6.1.3-.4 2.3-.8 4.6-.8 3.7 0 4 .2 3.4 2.2zm51.9 2.8c1.1 3.3 1.1 3.6-.6 3.6-1.7 0-3.9-3.9-3.9-6.8 0-2.4 3.4.1 4.5 3.2zm131.4-2.5c1.2 1.3-1.8 2.5-4.6 1.9-2.3-.4-3-1.1-2.6-2.1.4-1.1 1.4-1.3 3.6-.9 1.7.3 3.3.8 3.6 1.1zm36.1 2v3.5h-5.5c-5.4 0-5.5 0-5.5-2.9 0-3.1 1-3.6 8.3-4 2.5-.1 2.7.2 2.7 3.4zm112.7 6.2l3.2 9.1-6.7 2.1c-11.6 3.5-16.1 4.5-16.8 3.9-.6-.7-5.5-17.1-5.1-17.4.1-.1 2.7-.9 5.9-1.8 3.1-.9 7.6-2.5 10-3.5 2.3-1.1 4.8-1.8 5.3-1.7.6.1 2.4 4.3 4.2 9.3zm-313.3-6.5c.3 1.3.6 3.8.6 5.5 0 3.1-.2 3.3-3.5 3.3H275v-5.5c0-5.4.1-5.5 2.9-5.5 2.1 0 3 .6 3.5 2.2zm17.4 2c.6 2.3 1 4.3.9 4.4-.1.1-1.3.4-2.7.6-2.3.3-2.5 0-2.8-4.5-.3-4.1-.1-4.7 1.6-4.7 1.5 0 2.2 1.1 3 4.2zm164.2-1.7c0 2.7-1.2 3-6.8 1.9-2.3-.5-2.8-1-2.5-2.5.4-1.5 1.5-1.9 4.9-1.9 4 0 4.4.2 4.4 2.5zm204.6 7.9c.9 4.8 1.4 9.1 1.2 9.6-.2.4-4.6 4-9.8 7.8-7.3 5.4-9.6 6.7-9.8 5.4-.2-.9-1.5-5.7-2.9-10.5-1.4-4.9-2.2-9.1-1.8-9.5 2.5-2.5 20.2-12.9 20.8-12.3.5.5 1.5 4.7 2.3 9.5zM177 474.8c5.8 1.7 6.5 2.2 6.3 4.4-.3 4.5-5.4 19.8-6.6 19.8-2.1-.1-16.8-3.7-17.4-4.4-.3-.3.7-4.1 2.2-8.3 4.9-13.5 5.5-14.6 7.3-14 .9.3 4.6 1.4 8.2 2.5zm170.9 3.1c-1.3.4-3.9-3.1-3.2-4.3.3-.5 1.4.2 2.4 1.5 1 1.4 1.4 2.6.8 2.8zm63.6-1.8c-.6.9-5.5-1-5.5-2.2 0-.4 1.3-.3 3 .2 1.6.6 2.8 1.5 2.5 2zm-313.6 2.7c3.2 2.2 7.3 4.5 9 5.2 1.7.7 3.1 1.8 3.1 2.4 0 .6-1.2 4.9-2.5 9.5-1.4 4.7-2.5 9.5-2.5 10.7 0 1.3-.4 2.5-.8 2.8-.5.3-4.4-1.7-8.7-4.5l-7.8-5 .6-7.7c.4-7 2.4-17.2 3.3-17.2.2 0 3 1.7 6.3 3.8zm464.5 3.3c.9 2.8 1.8 6.6 2.2 8.4.6 3.2.4 3.4-2.8 3.9-1.8.3-6 1-9.2 1.6-9.5 1.6-9.1 1.8-10.5-6.1-.7-3.8-1-7.3-.7-7.6.6-.7 16-5 18.3-5.2.7-.1 1.9 2.2 2.7 5zm-227.5-1.5c.6 1.4.9 3 .6 3.5-1 1.5-3.2 1-3.8-.9-.2-.9-.8-2.5-1.2-3.5-1.2-2.9 3-2.1 4.4.9zm33.6-1.3c1.1.8 1.4 1.6.8 2-.6.4-1.8-.2-2.8-1.3-2.1-2.3-.8-2.7 2-.7zm21 0c1 .8 1.4 1.7.9 2-.5.3-2.1-.3-3.4-1.4-2.9-2.2-.6-2.8 2.5-.6zm36.4.2c.2.3 0 1-.6 1.6-1.4 1.4-6.3 0-6.3-1.8 0-1.2.7-1.4 3.2-.9 1.7.3 3.4.8 3.7 1.1zm-219.3 2.7c5.7 1 6.3 1.4 5.9 3.2-.3 1.2-1.2 5.7-2 10s-1.6 8.1-1.9 8.3c-.9.9-16.6-2-16.6-3 0-.6 1.2-5.3 2.7-10.4 1.8-6.2 3.2-9.3 4.1-9.3.8 0 4.3.5 7.8 1.2zm112.6 8.5c-2.9 1.2-2.7 1.5-4.5-5.9-.6-2.2-.4-2.7 1.5-3 1.9-.2 2.6.5 4 3.7l1.6 4-2.6 1.2zm121.9-7.8c1.2.4 1.4 1.2.8 2.8-.7 2-1.1 2.1-4.1 1.1-4.3-1.4-5-2.1-4.2-4.1.6-1.6 2.7-1.6 7.5.2zm92.6 6.6c.7 3.3 1.2 6.6 1.3 7.2 0 1-2.6 1.3-10 1.3h-10l-.1-5c-.1-2.8-.2-5.6-.3-6.2-.1-.8 2.5-1.7 6.9-2.4 10.8-1.8 10.7-1.8 12.2 5.1zm-177-2.5c2.1 2.5 2.1 2.9.6 3.4-2.1.8-6.8-4.5-5-5.6 1.7-1.1 2-1 4.4 2.2zm45.3-1.1c2.5 1.4 2.8 2 1.7 2.9-1.2 1-2.7.5-6.6-2.4-.4-.3.8-2.4 1.4-2.4.3 0 1.8.8 3.5 1.9zm59.2 2.7c-.4 2.9-.8 3.4-3.1 3.3-5.9-.3-8.6-1.4-8.3-3.4.6-3.8.9-4 6.4-3.7l5.4.4-.4 3.4zm-227-2.1l4.7.6-.5 6.7c-.9 11.9-.4 11.2-8.8 11.2h-7.4l1.3-6.3c.7-3.4 1.6-7.9 1.9-10 .6-2.9 1.1-3.7 2.4-3.3.9.2 3.8.7 6.4 1.1zm69.4 3.8c1.3 5.2 1.3 5.2-3.3 6.2-3 .6-3.3.4-3.3-1.7 0-1.3-.3-4-.7-6.1l-.6-3.8 3.3.3c3.1.3 3.5.7 4.6 5.1zm76.6 1.9c-1.8 1.8-6.7-2.9-5-4.9.9-1.2 1.6-1 3.7 1.1 2 2 2.3 2.8 1.3 3.8zm102.5-4.8c.1.1-.1 2.1-.4 4.5l-.6 4.3-5.3-.6c-7.7-.9-8-1.1-7.6-5.6l.4-3.9 6.7.6c3.6.3 6.7.6 6.8.7zm23.7.8c.3 1.3.6 4.1.6 6.2v3.9l-8.1-.6c-4.5-.4-8.3-.8-8.5-.9-.1-.2 0-2.4.3-5 .6-5.2.9-5.4 9.9-5.7 4.6-.1 5.2.2 5.8 2.1zm129.5 1.9c.7 2.2 1.8 7.1 2.5 10.9l1.3 6.8-7.6 3.5c-7.7 3.6-15.9 6.4-16.4 5.6-.9-1.2-4.8-20.1-4.3-20.6.7-.7 21.8-10.2 22.7-10.3.3 0 1.1 1.8 1.8 4.1zm-373.5 1.1c.3 1.7.6 5 .6 7.3 0 4.7-1.1 5.5-8.2 5.5-3.7 0-3.8-.1-3.8-3.9 0-2.1.3-5.8.6-8.2l.6-4.4 4.8.3c4.4.4 4.8.6 5.4 3.4zm22 2c.3 3.4.5 6.3.3 6.4-.1.2-2.1.6-4.3 1-4 .6-4.1.5-4.8-2.6-.3-1.8-.6-5-.6-7.1V487h8.7l.7 6.2zm58.5.7c2.6 3.6 2.6 4.3.1 5.8-1.7 1.1-2.2.8-4.4-2.9-1.9-3.1-2.2-4.4-1.3-5 2.1-1.4 3.5-.9 5.6 2.1zm74.9-.8c1.9.7 2.1 1.2 1.2 2.9-1.3 2.4-2.2 2.5-6 .5-3.3-1.7-3.3-1.7-2.4-3.9.6-1.7 1.5-1.6 7.2.5zM132 495.5c4.7 1.9 9.1 3.5 9.8 3.5 1.6 0 1.5 1.5-.8 11.5-1.1 4.7-2 9.7-2 11 0 1.3-.4 2.6-.9 2.9-.8.6-12-3-17.4-5.5-2.8-1.3-2.8-1.4-2.2-7.3.7-6.8 3.8-19.6 4.8-19.6.1 0 4.1 1.6 8.7 3.5zm551.6 1.9c-1.1 3.5-2.1 3.9-2.1.8 0-1.3 1.9-3.8 3.1-4.2.1 0-.4 1.5-1 3.4zM395 500.6c0 .6-.7 1.7-1.5 2.4-1.2 1-2.1.7-4.9-1.8-3.1-2.7-3.3-3.1-1.9-4.5s1.9-1.3 4.9.6c1.9 1.2 3.4 2.7 3.4 3.3zm-27.1-1.5c2.3 2.9 2.3 3.1.5 4.4-2.6 2-2.6 2-5.3-2.1-2.1-3-2.2-3.7-1-4.5 2.2-1.4 3.2-1 5.8 2.2zm-40.5 2.3c1.4 2.5 2.6 4.7 2.6 5 0 .7-6.1 3.9-6.5 3.4-.4-.5-4.5-10-4.5-10.5 0-.4 4-2.1 5.2-2.2.3-.1 1.8 1.9 3.2 4.3zm105.8-2.8c4.6 1.5 4.6 1.6 3.6 4.7-.6 1.8-1.2 3.3-1.3 3.5-.2.2-2.6-.8-5.4-2.2-4.8-2.5-5-2.7-3.9-5.1 1.3-3 1.2-2.9 7-.9zM73 503.5c0 1.4-.4 2.5-1 2.5-.5 0-1-.1-1-.3 0-.1-.4-1.7-.9-3.5-.9-3-.8-3.1 1-2.2 1.1.6 1.9 2.1 1.9 3.5zm530.4 2.7c.9 4 1.9 8.9 2.2 10.9.7 4.2 1.1 4.1-14.3 6.8-11.8 2.1-10.5 3-12.3-8.9-.7-4.1-1.3-7.9-1.3-8.4-.2-.8 19.5-7.2 22.9-7.5.7-.1 1.9 3.2 2.8 7.1zm-296-2.4c.2.4 1.4 3.2 2.5 6.1l2.1 5.2-3.6 1.5c-2 .8-4.2 1.3-4.9 1-1.1-.4-3.9-9-4-12.1 0-1.6 7-3.1 7.9-1.7zm145.6.3l5.2 1.1-.7 3.7c-.4 2-1 4-1.5 4.5-.8.8-10.6-1.9-12.2-3.3-1.1-1 1.4-7.1 2.9-7.1.6 0 3.5.5 6.3 1.1zm-282.9 2.8l6.5 1.6-1.9 12.2c-2.2 14.1-1 13.2-14.2 10.5-7.8-1.7-8-1.8-8.3-4.8-.2-2.6 2.4-15.7 4.3-21.1.5-1.4 2.1-1.2 13.6 1.6zm183.8 2.2l3 4.2-2.4 1.8c-1.3 1.1-2.8 1.9-3.3 1.9-1 0-6.7-8.9-6-9.4.9-.8 4.4-2.5 5-2.6.3 0 2 1.9 3.7 4.1zm53.1-1.9c4.4 2.5 4.7 3.3 2.4 6.6l-1.5 2.2-4.5-3c-2.4-1.7-4.4-3.4-4.4-3.7 0-.7 3.1-4.3 3.7-4.3.2 0 2.2 1 4.3 2.2zm262.5 1c-.2 1.3-.6 4.8-1 7.9-.6 5.4-.9 6-7.6 12.5-4.5 4.3-7.3 6.3-7.8 5.6-.4-.6-.8-4.9-.9-9.4l-.3-8.3 6.5-3.3c3.5-1.8 7.2-4.2 8.1-5.3 2.4-2.5 3.4-2.4 3 .3zM384 513.8c0 .4-.9 1.8-2 3.2l-1.9 2.5-4.2-4.2-4.3-4.2 2.5-1.9 2.4-2 3.7 3c2.1 1.6 3.8 3.3 3.8 3.6zm92-5.2l5.5.6-.3 5.2c-.2 2.8-.7 5.5-1.1 5.9-.9.9-14.8-2-15.5-3.2-.3-.3 0-2.8.6-5.5.9-4.2 1.3-4.7 3.2-4.2 1.1.3 4.6.9 7.6 1.2zm93.9 6.6c.7 4.6 1.4 9.1 1.5 10 .5 2.4-1.3 2.8-13.4 2.8h-10.8l-.7-8c-.4-4.4-.7-8.3-.6-8.7.1-.7 15.9-3.7 21.2-4.2 1.3-.1 1.9 1.6 2.8 8.1zm-281.2 0c1.1 4 1.9 7.4 1.8 7.6-.2.2-2.7 1-5.6 1.7-6.3 1.7-6.4 1.6-7.3-6.7-.4-3.3-.9-6.5-1.2-7.3-.4-.9.5-1.5 2.8-1.8 7.8-.9 7.3-1.3 9.5 6.5zm-81.2 8.7c-.4 6.4-.8 11.7-.9 11.8-.1.2-4.6 0-9.9-.4-11.3-.7-10.7.5-8.1-15.1l1.6-9.7 9 .9 9 1-.7 11.5zm298.3-12.3c2 .4 2.2 1 2.2 7.4 0 7 0 7-2.7 7-2.5 0-5.6-.6-14.1-2.5-2.1-.5-2.3-1-2.1-7l.2-6.5 7.1.6c3.9.3 8.1.7 9.4 1zm-241.1 8c.7 4.3 1.1 8.4.9 9-.3.6-2.2 1.4-4.3 1.7-2.1.4-5.3.9-7 1.3l-3.3.6v-20.1l5.3-.4c2.8-.1 5.6-.3 6.2-.2.5.1 1.5 3.7 2.2 8.1zm272.7-4.9c.3 2.1.6 6.2.6 9.1v5.4l-6.2-.6c-3.5-.4-8.4-.9-11-1.2l-4.8-.6v-7.3c0-8.5-.7-8.1 13.1-8.4l7.6-.1.7 3.7zm-441.8 3.2l7.2 4.2-.4 9.7c-.2 5.3-.4 10.1-.4 10.5 0 1.3-11.4-8.3-12.2-10.2-.3-1-.9-4.9-1.3-8.7-.4-3.8-.9-7.7-1.2-8.8-.3-1-.1-1.6.3-1.4.5.3 4.1 2.4 8 4.7zm141.8-1.2c.3 2.1.6 6.8.6 10.4v6.6l-3.7.7c-2.1.3-6.1.6-8.9.6h-5.2l.5-6.8c.2-3.7.6-8.6.9-11l.5-4.2h14.6l.7 3.7zm191.4 6.7l-2.1 4.4-5.6-3.6c-3.1-2-5.7-3.7-5.9-3.8-.2-.1.7-1.8 1.8-3.7l2.2-3.6 5.9 2.9 5.9 3-2.2 4.4zm-91.1-3.4c1.8 3.3 2.8 6 2.2 6-.6 0-2.4 1-4.1 2.1-3.5 2.5-3.8 2.2-7.1-5.2l-2.5-5.6 3.2-1.6c1.7-.9 3.6-1.6 4.1-1.6.6 0 2.5 2.6 4.2 5.9zm63.2 6.7c.5.3-4.2 7.3-5 7.3-.4 0-2.9-1.9-5.7-4.2l-5.1-4.1 2.7-3.2 2.7-3.2 5 3.5c2.8 2 5.2 3.7 5.4 3.9zm-34.1-2.4l4.2 4.3-3.3 3.2c-1.8 1.8-3.6 3.2-3.9 3.2-.3 0-2.3-2.5-4.3-5.5l-3.8-5.4 2.4-2c1.3-1.1 2.9-2 3.4-2.1.6 0 3 1.9 5.3 4.3zM321 536.6c0 .7-10.2 5.5-10.7 5.1-1.2-1.2-5.4-15.2-4.7-15.4.5-.2 2.7-1.2 4.9-2.2l4-1.8 3.3 7c1.7 3.8 3.2 7.1 3.2 7.3zm130.3-4.3c-.8 2.9-1.7 5.4-1.9 5.6-.2.2-3.7-1.1-7.8-2.8l-7.4-3.3 2-4.8 2-4.8 7.3 2.5 7.4 2.4-1.6 5.2zm189.9-4.1c.2 6.1.2 10.6-.1 13-.1 2.1-6.4 5.8-15.2 9.1l-6.7 2.5-.4-2.8c-.2-1.6-.4-6.6-.4-11.1l.1-8.2 9.8-3.2c5.4-1.8 10.1-3.5 10.4-3.9 1.6-1.6 2.3-.2 2.5 4.6zm-514 4l9.9 3.2-.6 12.3c-.2 6.8-.7 12.3-1 12.4-1.6.2-13.9-4.9-15.9-6.6-2.2-1.8-2.5-3.1-3.1-13.3-.3-6.1-.3-11.2.2-11.2.4 0 5.1 1.4 10.5 3.2zm343.8.5c3.6.9 6.6 1.7 6.8 1.9.4.2-1.8 12.6-2.4 13.6-.3.5-16.7-4.7-18.3-5.8-.3-.3 2.7-10.1 3.6-11.7.3-.5 1.2-.5 2.2-.2.9.4 4.5 1.4 8.1 2.2zM294 535c.6 2.2 1.9 6 3 8.4l1.8 4.4-6.4 2.7c-3.8 1.6-6.9 2.4-7.4 1.9-1.1-1.1-5.3-17.5-4.6-18.1.5-.5 9.5-3.1 11.3-3.2.7-.1 1.7 1.7 2.3 3.9zm127 4.9c0 .3-1.3 2.7-2.8 5.3l-2.8 4.7-2.5-1.7c-1.4-.9-4.4-3.2-6.7-5.1l-4.1-3.4 3-4.2 3.1-4.3 6.4 4.1c3.5 2.2 6.4 4.3 6.4 4.6zm-71.9-3.2c5.5 7.5 5.4 7.1 1.2 10.8-2.1 1.9-4.3 3.4-5 3.5-.6 0-2.9-3.1-5.2-7l-4-7 4.2-2.5c2.3-1.4 4.5-2.5 4.8-2.5.3 0 2.1 2.1 4 4.7zm29.5.2c1.3 1 4 3.3 5.9 5l3.6 3.1-3.7 4.6-3.7 4.5-6.1-6-6-6.1 3.4-3.5c1.9-1.9 3.6-3.5 3.8-3.5.2 0 1.5.8 2.8 1.9zm229.5 5.3c0 4 .2 8.4.5 9.8.2 1.4 0 3.1-.4 3.7-.7 1-24.2 6.6-24.9 5.9-.1-.1-.4-5.2-.7-11.3l-.6-11.1 7.3-1.2c3.9-.7 8.8-1.6 10.7-2 8-1.8 8-1.8 8.1 6.2zm-109.9-3.6l8.8 1.7-.5 3.6c-.2 2-.7 5.7-1 8.3-.4 2.7-.9 4.8-1.3 4.8s-5.2-1.1-10.7-2.5c-5.5-1.4-10-2.5-10.1-2.5 0 0 .6-3.6 1.5-8 1.2-6.4 1.8-7.9 3-7.6.9.3 5.5 1.2 10.3 2.2zm-228.6 9.3c1.4 5.1 2.2 9.6 1.9 9.9-.5.5-15.9 5.1-16.2 4.8-.3-.2-3.3-19.4-3.3-20.9 0-.9 2-1.8 5.3-2.4 9.7-2 9.6-2 12.3 8.6zM163 541.1c11.1 1.7 10.4 1 9.6 8.7-.3 3.7-.6 9.5-.6 12.9v6.1l-3.2-.4c-7.1-.9-15.5-2.6-16.6-3.3-1.5-.9-2.7-15.5-1.8-21.6.7-4.2 1-4.6 2.9-4.1 1.2.3 5.6 1.1 9.7 1.7zm375.7 1.3c.2.1 0 4.6-.4 10l-.6 9.8-7.1-.7c-3.9-.3-9.3-1.1-12-1.7l-4.9-1.1.7-6.6c.3-3.6.6-7.7.6-8.9v-2.4l11.8.7c6.4.4 11.8.8 11.9.9zm34.1 9.3l-.3 10.8-12.8.3-12.9.3.4-10.3.3-10.3 7.5-.6c4.1-.3 9.9-.6 12.8-.7l5.3-.2-.3 10.7zm-333-.1c.7 4.7 1.5 9.8 1.8 11.3l.6 2.8-8.4 1.3c-4.5.6-9.1 1.4-10 1.6-1.9.6-2.5-2.5-3.1-16.3l-.4-8.2 4.6-.4c2.5-.2 6.6-.4 9.1-.5l4.6-.2 1.2 8.6zm-32.4 2.4c.3 5.2.6 11 .6 12.7v3.3h-22v-26.1l10.4.3 10.3.3.7 9.5zm122.4-2l4.3 8-5.5 3.5c-3 1.9-6 3.5-6.6 3.5-.6 0-2.4-3-4.1-6.6-4.8-10.7-4.8-10.6 1.3-13.6 2.9-1.5 5.5-2.7 5.8-2.7.3-.1 2.4 3.5 4.8 7.9zm107.6-4.3l7.3 3.6-2.4 6.1c-1.4 3.4-2.8 6.4-3.1 6.8-.7.7-16.2-8.6-16.2-9.7 0-1.5 5.2-10.5 6-10.5.5 0 4.3 1.6 8.4 3.7zm-29.7 13c.8.3-.1 2.4-2.8 6.4-2.2 3.2-4.3 5.9-4.7 5.9-.5 0-3.9-2.8-7.6-6.3l-6.8-6.2 4.2-5.2 4.3-5.2 6.1 5.1c3.3 2.8 6.6 5.3 7.3 5.5zm-42.2-3.1l5.8 6.5-4.9 5c-2.6 2.7-5.1 4.9-5.5 4.9-.4 0-3.2-3.4-6.3-7.6l-5.5-7.7 4.7-3.8c2.6-2.1 5-3.8 5.3-3.9.4 0 3.3 3 6.4 6.6zm288.3-3.4c-1.9 2.7-2.3 3-2.6 1.5-.2-1 .5-2.5 1.5-3.2 3.1-2.4 3.5-1.7 1.1 1.7zM305 563.5c1.7 4.4 3.6 8.4 4.1 8.9.5.6.9 1.4.9 1.8 0 .8-13.3 7.8-14.9 7.8-.9 0-6.2-12.9-7.4-18.1-.6-2.4-.2-2.7 6.6-5.6 3.9-1.6 7.3-3 7.4-2.9.1.1 1.5 3.7 3.3 8.1zm166.3-.9c-.9 4.9-4.7 15.4-5.5 15.4-1.4 0-18.8-8.2-18.8-8.9 0-.3 1.1-3.6 2.6-7.2l2.5-6.7 9.7 3.2c5.3 1.8 9.6 3.7 9.5 4.2zm-368.5-4.7c.8.5 1.2 1.7 1 2.7-.3 1.5-.6 1.4-2.1-.9-1.8-2.7-1.3-3.4 1.1-1.8zm534.9 4.3c-.2.7-1.3 4-2.3 7.3-2 6.6-2.7 7.2-12.7 12.8l-6.8 3.8.6-4.3c.4-2.4.9-5 1-5.8.2-.8.4-2.9.4-4.5.1-2.8.6-3.2 9.4-6.7 10.3-4.1 11.1-4.3 10.4-2.6zm-153.1 4.2c2.2.7 6.9 1.9 10.7 2.6 5.6 1 6.7 1.5 6.7 3.2 0 3.9-4.3 17.9-5.4 17.5-.6-.2-5.7-1.9-11.3-3.8-5.7-1.8-10.3-3.8-10.3-4.4 0-1.2 5-16.5 5.5-16.5.1 0 2 .6 4.1 1.4zM275 567.7c.1 1 1.6 5.8 3.5 10.8 1.9 4.9 3 9.4 2.6 9.8-.9.9-17.4 6.7-17.8 6.3-.6-.6-6.3-20.3-6.3-21.8 0-1.2 1.3-2.1 4.3-2.8 2.3-.6 5.8-1.7 7.7-2.4 4.8-1.9 6-1.9 6 .1zm72.7 11.4l3.3 4.7-7.1 5.3-7.1 5.3-1.7-2.2c-3.6-4.9-9.6-17.5-8.4-17.9.6-.2 3.5-2.1 6.5-4.1l5.3-3.8 2.9 4.1c1.6 2.2 4.4 6.1 6.3 8.6zm78.6-6.1l6.8 4.2-3.7 6.7c-2 3.6-3.9 7-4.4 7.4-.9 1.1-4.6-1.2-12-7.2-3-2.5-5.6-4.6-5.8-4.7-.2-.1 1.6-3.1 4-6.7 3.9-6 4.5-6.5 6.3-5.3 1.1.7 5.1 3.2 8.8 5.6zm-294.8-2.5l6 2.3.6 5.8c.3 3.3.9 6.9 1.2 8.1 2 6.8 2.1 6.5-.4 5.8-1.3-.4-4.5-2.2-7.1-3.9-5-3.3-8.9-10-10.4-18-.8-4.4-1.4-4.4 10.1-.1zM391 585.9c-.5.9-3 3.8-5.5 6.6l-4.5 5-7.6-7.8-7.6-7.8 5.4-5.7 5.3-5.7 7.7 6.9c6.1 5.4 7.5 7.2 6.8 8.5zm216-13.5c0 2.5-3.9 17.9-4.7 18.6-1.1 1-14 4.8-19.2 5.6l-4.3.7.6-2.9c.5-2.5 2.5-16.6 2.6-18.7 0-.4 1.7-.7 3.8-.8 2 0 7.3-.8 11.7-1.9 10-2.3 9.5-2.3 9.5-.6zm-80.4 2.4l8.9.7.1 3c0 2.6-.7 6.9-3.1 17.1l-.5 2.1-12.2-2.4c-6.8-1.4-12.4-2.6-12.6-2.8-.2-.2.7-4.8 1.9-10.3l2.2-9.9 3.2.8c1.8.5 7.2 1.3 12.1 1.7zm-279.7 12.1c1.8 6.2 3 11.5 2.8 11.7-.8.9-20.7 4.7-21.3 4.1-.8-.8-5.3-24-4.8-24.6.7-.8 18.9-3.7 19.5-3.2.3.3 2 5.7 3.8 12zM165 578c4.1.5 7.8 1 8.1 1 .4 0 1.2 4.3 1.9 9.5.6 5.2 1.5 10.9 2 12.5 1.1 3.7.6 3.7-11.2.9l-8.7-2.2-2.6-10.9c-1.4-5.9-2.5-11.3-2.5-11.9 0-.6 1.1-.8 2.8-.5 1.5.4 6.1 1.1 10.2 1.6zm406.5 2.3c-1.4 9.1-2.7 15.5-3.6 16.8-.6 1.1-3.6 1.4-12.9 1.3-6.6 0-12.2-.3-12.5-.6-.3-.3.1-3.7 1-7.7.8-4 1.5-8.7 1.5-10.4v-3.2l13.6-.2 13.5-.1-.6 4.1zm-359.6 10.1c1.2 6.2 2.1 12 2.1 12.9 0 1.4-1.3 1.7-8.7 1.9-4.9 0-9.7.1-10.7.2-1.7.1-2.4-1.4-4.2-8.4-2.1-7.8-3-16.1-2-17.1.3-.2 5.2-.5 10.9-.6l10.5-.1 2.1 11.2zm108.5 2.8l5.2 9.3-7.6 4.8c-4.1 2.6-8.2 4.6-9 4.5-1.3-.3-9.1-14.7-10.4-19.3-.5-1.7.7-2.7 7.2-6.2 4.4-2.4 8.1-3.8 8.6-3.3s3.2 5.1 6 10.2zm130.9-6.6c5 2.6 9.4 4.8 9.6 5 .2.2-1.3 4.2-3.4 9-4.4 9.9-3.8 9.7-14.8 3.4-12.1-6.9-11.5-5.7-6.5-14.4 2.4-4.2 4.6-7.6 5.1-7.6.4 0 4.9 2.1 10 4.6zm-45.7 8.9c3.6 3 6.8 5.5 7.2 5.5.4 0 1.5.7 2.5 1.5 1.8 1.3 1.6 1.8-3.2 8.9-2.8 4.1-5.5 7.7-6 8.1-.6.3-4.3-2.2-8.3-5.6-12.5-10.6-11.9-8.6-5.1-16.7 3.2-3.9 5.9-7.1 6.1-7.2.2 0 3.3 2.5 6.8 5.5zm-41.8 3.5c4.1 4.4 7.2 8.3 7 8.8-.6 1.4-13.5 13.2-14.4 13.2-1-.1-13.9-17.7-13.9-19.1 0-1.1 11.6-10.8 13-10.8.6 0 4.3 3.5 8.3 7.9zm117.8.2l12 4.3-3.7 9.3c-2 5.1-3.9 9.6-4.2 9.9-.7.7-9.5-2.2-17.8-5.9l-6.7-3 3.9-8.3c2.1-4.6 3.9-8.8 3.9-9.4 0-1.4-1.2-1.7 12.6 3.1zm-194.1 1.5c1 2.7 3.5 7.8 5.6 11.5 2.1 3.7 3.5 6.9 3.1 7.2-3.1 1.8-18.7 7.6-19.7 7.3-1-.4-10.5-20.7-10.5-22.6 0-.4 2.4-1.5 5.3-2.4 2.8-1 7-2.6 9.2-3.6 2.2-1.1 4.3-2 4.6-2 .4-.1 1.4 2 2.4 4.6zm327.5 2.6c0 .2-1.3 1.6-2.9 3.1-2.9 2.8-3 2.8-2.4.5.4-1.3 1.1-2.7 1.7-3.1 1.1-.8 3.6-1.1 3.6-.5zm-469.1 6.3c.6 1.4 1.1 2.8 1.1 3.1 0 .9-4.1-3-5.1-4.8-.7-1.4-.5-1.6 1-1.2 1 .3 2.4 1.6 3 2.9zm369.6-1.5c6.1 1.2 11.3 2.5 11.8 2.8 1.3 1.2-5.7 20.1-7.5 20.1-2.3 0-20.1-3.2-22.2-4l-2.4-.9 3.7-10c2-5.6 4.1-10.1 4.6-10.1.6 0 6 1 12 2.1zm-257.6 11c2.8 6.5 5.1 11.9 5.1 12.3 0 .7-6.3 2.4-15.1 4l-6.7 1.3-3.5-7.6c-3.6-7.8-6.3-15.9-5.6-16.4.4-.2 20.2-5.3 20.5-5.2.1 0 2.5 5.2 5.3 11.6zm334.4-3.2c-3.4 5.5-4.4 6.3-10.8 9-7.5 3.2-11.6 4.3-11.4 3.3 0-.4 1.3-4.3 2.7-8.7l2.7-8 9.3-1.1c5.1-.7 9.6-1.5 10-1.8.4-.4.8-.3 1 .3.2.5-1.4 3.7-3.5 7zm-161.5-3c3.1 2.1 7.7 4.8 10.2 6.1 2.5 1.2 4.7 2.4 4.8 2.5.4.4-7 13-9.6 16.3l-1.8 2.3-10.4-6.7c-5.8-3.6-10.7-6.7-10.8-6.9-.4-.4 11-17.5 11.6-17.5.2 0 2.9 1.7 6 3.9zm-92.5 6.6c3.7 5.2 6.7 9.9 6.7 10.4 0 .9-17 12.5-17.5 11.9-.1-.2-2.5-3.4-5.4-7.1-5.6-7.5-8.4-12.3-7.9-13.8.4-1.1 14.9-10.7 16.3-10.8.6 0 4 4.3 7.8 9.4zm217.9-6.9l7.5.7-2.2 5.6c-1.2 3.1-3 7.3-4 9.3l-1.9 3.8-9 .1c-5 .1-10.3.2-11.8.3-1.6.2-2.8 0-2.8-.3s1.4-4.9 3.2-10.3l3.2-9.8h5.2c2.8 0 8.5.3 12.6.6zm-381.5 1.9l6.2.7 2.1 6.6c1.2 3.6 2.8 7.9 3.7 9.5.8 1.6 1.3 3.1 1.1 3.3-.2.2-3.4-.6-7-1.7-7.4-2.2-10.3-5-15.3-14.8l-2.7-5.4 2.9.6c1.5.3 5.6.9 9 1.2zm220.9 15.7c.4.5-2.7 4.4-6.9 8.6l-7.5 7.5-2.4-1.9c-1.3-1-5.4-5.1-9.1-9l-6.7-7.2 7.2-7 7.2-7 8.8 7.4c4.8 4.1 9 8 9.4 8.6zM222 626.5c2.1 6 3.8 11.1 3.7 11.1-.9.8-10.1 1.2-14.4.7l-5.4-.6-4.3-8.6c-6.2-12.2-6.3-12.9-2.9-13.3 1.5-.2 6.6-.3 11.2-.3h8.4l3.7 11zm242.1 3.5c4.5 2.2 9.7 4.3 11.6 4.6 1.8.3 3.3.9 3.3 1.3 0 .6-10.5 17.9-11.5 18.9-.2.2-5.7-2-12.3-4.9l-12.1-5.2 3.4-5.3c1.9-3 4.6-7.2 6-9.4 1.4-2.2 2.7-4 2.9-4 .3 0 4.2 1.8 8.7 4zm-158.9 3.3c2.1 3.4 5.2 8.2 7 10.6l3.3 4.3-2.3 1.7c-4.5 3.1-17.6 8-18.8 7-1.4-1.2-12.1-17.9-12.6-19.6-.2-.8 3.6-3.1 9.2-5.7 5.2-2.4 9.7-4.4 10-4.5.3 0 2.2 2.7 4.2 6.2zm56.2 12.8c10.1 10.5 10.2 9.7-1.3 17l-7.4 4.8-7.6-6.8c-10.9-9.8-11.9-11.1-10.1-12.1.8-.5 4.9-3.4 9-6.4 4.1-3 7.8-5.5 8.1-5.5.3-.1 4.5 4 9.3 9zm54.5-1.7l10.4 6.5-7.8 8-7.7 8-5.7-3.1c-6.5-3.7-15.3-10.3-15.1-11.5.4-1.7 13.5-15.3 14.5-14.9.6.2 5.7 3.3 11.4 7zm80-3.5c3.6 1.1 9 2.2 11.9 2.6 2.8.4 5.2 1 5.2 1.5 0 .4-2.2 4.2-5 8.4l-5 7.6h-6.2c-4.9 0-17-2.3-18.6-3.6-.2-.1 1.9-3.8 4.7-8.3 2.8-4.4 5.1-8.5 5.1-9.1 0-1.3.2-1.3 7.9.9zm-222 9.8c3.4 5.3 6.3 10 6.4 10.6.2 1.1-7.3 3.3-14.4 4.2l-4.7.6-5.9-7.3c-5.4-6.6-8.3-10.8-8.3-12.2 0-.2 2.5-1 5.6-1.6 3.1-.7 7.3-1.8 9.3-2.5 2-.8 4.1-1.4 4.7-1.4.6-.1 3.9 4.2 7.3 9.6zm289.6-4.2c-1.6 1.3-3.1 2.3-3.2 2.1-.8-.8 1-3.5 2.5-3.9 3.5-.9 3.6-.6.7 1.8zm-17.5.6c0 .3-2.4 3.2-5.3 6.4l-5.3 5.8-9.4 1.3c-5.2.7-9.6 1.2-9.7 1-.2-.2 1.7-3.6 4.2-7.7l4.5-7.4h10.5c5.8 0 10.5.3 10.5.6zm-349.2 4c1.2 1.8 1.1 1.9-.6 1-1-.5-2.4-1.7-3.1-2.5-1-1.2-.9-1.4.6-1 1.1.3 2.5 1.4 3.1 2.5zm40.2 6.1c2.5 4.4 4.6 8.4 4.8 8.7.1.4-2.9.4-6.8 0-6-.7-7.7-1.3-10.8-4-3.7-3.3-9.1-9.8-9.2-11.1 0-.9 4.1-1.5 11.5-1.6l6-.1 4.5 8.1zm212.4 5.4l8.9 3.9-7.7 7.2-7.6 7.2-6.8-2.5c-3.7-1.3-8.6-3.1-10.9-4-2.4-.9-4.3-1.9-4.3-2.2 0-.4 1.8-2.7 4.1-5.2 2.2-2.5 5.2-6 6.6-7.7 2.8-3.7.8-4.1 17.7 3.3zm-118.5 3.7c4.6 4.8 8.2 8.9 8 9-1.2.9-14.7 6.5-16.6 7-2.5.5-12.1-6.8-16.6-12.6l-2.7-3.5 8.8-4.5c4.8-2.4 9.2-4.3 9.7-4.3.6.1 4.8 4 9.4 8.9zm57.2 2.7c5 3.8 9.6 7 10.2 7 1.7 0-4.7 4.9-11.2 8.7-5.3 3-5.7 3.1-8.5 1.6-4.6-2.4-16.6-10.5-16.6-11.2 0-.4 2.7-2.6 5.9-5 3.3-2.3 6.7-5.1 7.7-6.2.9-1 2.1-1.9 2.6-1.9s5 3.1 9.9 7zm90.7 3.4c5.2 1.4 9.5 2.6 9.7 2.8.2.2-2.2 2.4-5.3 4.8l-5.7 4.5-9.3-.1c-5.1-.1-9.5-.4-9.8-.7-.5-.5 9.6-13.7 10.6-13.7.3 0 4.7 1.1 9.8 2.4zm-183.4 6.8l6.7 7.3-2.7.7c-5.1 1.3-11.9 1.1-14.9-.4-4-2.1-12.7-9.9-12-10.7.7-.7 12.2-3.9 14.7-4 .9-.1 4.6 3.2 8.2 7.1zm214.1-2.3c-.6.4-2.5 1.3-4.3 1.9-3 1-3.2 1-2.2-.8.7-1.4 2.1-2 4.2-2 1.9 0 2.8.4 2.3.9zm-254.7 4.6c-.3.3-1.8 0-3.3-.7-2.4-1.1-2.5-1.3-.8-1.9 1.8-.7 5.2 1.5 4.1 2.6zm170.7 8.5c3.7 0 1.9 2.2-4.1 5.1l-6.7 3.1-8.6-1.7c-4.7-.9-9.1-2-9.8-2.4-.8-.4 1.3-2.7 5.9-6.3l7.1-5.6 7.4 3.9c4.1 2.1 8 3.9 8.8 3.9zm-68.9-1l8.7 6-3.8 1.6c-8.5 3.5-11.3 3.4-20.2-1-4.6-2.2-8.3-4.3-8.3-4.6 0-.4 11.6-6.7 14.6-7.9.1-.1 4.1 2.6 9 5.9zm89.9 7.9c-.6.5-2.6 1.2-4.5 1.6-3.1.7-3.3.6-2.1-.9.7-.9 2.7-1.6 4.4-1.6 1.9 0 2.7.4 2.2.9zm-128.9 1.6c1.8 1.4 1.7 1.5-1.1.9-3.7-.8-5.7-2.4-2.9-2.4 1.1 0 2.9.7 4 1.5zm64.6 6.3c-1.2.2-3.4.2-4.9 0l-2.8-.4 2.5-1.1c1.8-.7 3.2-.7 5 .1 2.4 1.1 2.4 1.1.2 1.4z"/></svg>